<svg width="16" height="16" viewBox="0 0 16 16" fill="none" xmlns="http://www.w3.org/2000/svg">
<path d="M11.3906 4.5133L11.3906 4.51332L11.3949 4.5151C11.4356 4.53201 11.4679 4.56437 11.4849 4.6051L11.9466 4.41334L11.4867 4.60938C11.4949 4.6288 11.4995 4.64961 11.5 4.67071V11.3333C11.5 11.3775 11.4824 11.4199 11.4511 11.4512C11.4199 11.4824 11.3775 11.5 11.3333 11.5C11.2891 11.5 11.2467 11.4824 11.2154 11.4512C11.1842 11.4199 11.1666 11.3775 11.1666 11.3333V6.27333V5.0652L10.3129 5.91999L4.78619 11.4533L4.78496 11.4546C4.76946 11.4702 4.75103 11.4826 4.73072 11.491C4.71041 11.4995 4.68863 11.5039 4.66663 11.5039C4.64462 11.5039 4.62284 11.4995 4.60253 11.491C4.58222 11.4826 4.56379 11.4702 4.54829 11.4546L4.5483 11.4546L4.54539 11.4517C4.52977 11.4362 4.51737 11.4177 4.50891 11.3974C4.50045 11.3771 4.49609 11.3553 4.49609 11.3333C4.49609 11.3113 4.50045 11.2895 4.50891 11.2692C4.51737 11.2489 4.52977 11.2305 4.5454 11.215L4.54663 11.2138L10.08 5.6871L10.9348 4.83333H9.72663H4.66663C4.62242 4.83333 4.58003 4.81577 4.54877 4.78452C4.51752 4.75326 4.49996 4.71087 4.49996 4.66667C4.49996 4.62246 4.51752 4.58007 4.54877 4.54882C4.58003 4.51756 4.62242 4.5 4.66663 4.5H11.3293C11.3504 4.50051 11.3712 4.50502 11.3906 4.5133Z" fill="#4CA28D" stroke="#00BDB0"/>
</svg>
