<svg width="32" height="32" viewBox="0 0 32 32" fill="none" xmlns="http://www.w3.org/2000/svg">
<path d="M31.5211 19.8706C29.3839 28.442 20.7014 33.6585 12.128 31.521C3.55811 29.384 -1.65895 20.7021 0.479281 12.1312C2.61551 3.55876 11.2979 -1.65819 19.8688 0.478793C28.4418 2.61577 33.6583 11.2987 31.5211 19.8706Z" fill="#F7931A"/>
<path fill-rule="evenodd" clip-rule="evenodd" d="M23.2915 13.9097C23.6244 11.6681 21.93 10.463 19.6132 9.65915L20.3647 6.62259L18.5298 6.16195L17.7981 9.11849C17.3157 8.9974 16.8202 8.88317 16.3279 8.76998L17.0648 5.79396L15.2309 5.33331L14.4788 8.36882C14.0795 8.27722 13.6875 8.18667 13.307 8.09138L13.3091 8.08191L10.7785 7.44543L10.2904 9.41962C10.2904 9.41962 11.6519 9.73391 11.6231 9.75339C12.3663 9.94028 12.5006 10.4357 12.4781 10.8284L11.6221 14.2877C11.6733 14.3009 11.7397 14.3198 11.8128 14.3493L11.7507 14.3337C11.7081 14.3229 11.664 14.3118 11.6189 14.3009L10.419 19.1468C10.328 19.3743 10.0975 19.7154 9.57804 19.5859C9.59633 19.6127 8.24427 19.2505 8.24427 19.2505L7.33331 21.3663L9.72124 21.966C9.98783 22.0333 10.2512 22.1025 10.5119 22.1709L10.5121 22.171C10.6857 22.2166 10.8581 22.2619 11.0294 22.3061L10.27 25.3774L12.1029 25.838L12.855 22.7993C13.3557 22.9362 13.8417 23.0626 14.3173 23.1815L13.5678 26.206L15.4028 26.6666L16.1622 23.6011C19.2912 24.1976 21.6441 23.957 22.6345 21.1063C23.4326 18.811 22.5948 17.4869 20.9485 16.6236C22.1474 16.3451 23.0506 15.5507 23.2915 13.9097ZM19.0989 19.8317C18.5787 21.9376 15.3063 21.067 13.809 20.6686C13.6743 20.6328 13.554 20.6008 13.4513 20.5751L14.4589 16.5062C14.584 16.5376 14.7367 16.5721 14.9098 16.6112C16.4584 16.9613 19.632 17.6786 19.0989 19.8317ZM15.2209 14.723C16.4692 15.0585 19.1922 15.7905 19.6665 13.8765C20.1508 11.9188 17.5044 11.3287 16.2119 11.0405C16.0665 11.0081 15.9382 10.9795 15.8335 10.9532L14.9199 14.6436C15.0062 14.6652 15.1075 14.6925 15.2209 14.723Z" fill="white"/>
</svg>
