<svg width="32" height="32" viewBox="0 0 32 32" fill="none" xmlns="http://www.w3.org/2000/svg">
<rect width="32" height="32" rx="6" fill="white" fill-opacity="0.1"/>
<rect x="0.5" y="0.5" width="31" height="31" rx="5.5" stroke="white" stroke-opacity="0.1"/>
<path opacity="0.4" d="M26 11.81V20.19C26 23 24.71 24.93 22.44 25.66C21.78 25.89 21.02 26 20.19 26H11.81C10.98 26 10.22 25.89 9.56 25.66C7.29 24.93 6 23 6 20.19V11.81C6 8.17 8.17 6 11.81 6H20.19C23.83 6 26 8.17 26 11.81Z" fill="#315DF1"/>
<rect x="9.57153" y="11" width="12.8571" height="1.42857" fill="white"/>
<rect x="9.57153" y="15.2856" width="12.8571" height="1.42857" fill="white"/>
<rect x="9.57153" y="19.5713" width="12.8571" height="1.42857" fill="white"/>
</svg>
