<svg width="89" height="24" viewBox="0 0 89 24" fill="none" xmlns="http://www.w3.org/2000/svg">
<g clip-path="url(#clip0_251_3705)">
<path d="M56.8181 7.95229V6.12282H60.0442V20.4779H56.8278V18.5673C56.6691 18.7111 56.5967 18.7644 56.5368 18.8317C54.997 20.5637 52.9906 21.0576 50.7292 20.8466C47.0359 20.5034 43.6463 16.9164 44.1948 12.4111C44.5461 9.53593 46.0618 7.45375 48.7753 6.25731C51.2055 5.18375 54.7946 5.53153 56.6594 7.88038C56.676 7.90127 56.7148 7.90589 56.8181 7.95229ZM47.4426 13.2853C47.4329 15.9379 49.3794 17.8531 52.0882 17.8578C54.8116 17.8647 56.8158 15.924 56.8061 13.2876C56.7987 10.6814 54.8287 8.75224 52.1652 8.73833C49.408 8.72673 47.45 10.6095 47.4426 13.283V13.2853Z" fill="#FAFAFA"/>
<path d="M79.0307 13.9692V20.4663H75.7639C75.7326 19.9585 75.6699 19.446 75.6722 18.9336C75.6842 13.1044 75.7109 7.27515 75.7183 1.44824C75.7183 0.33062 75.6892 0.33062 76.8246 0.33062C77.2963 0.33062 77.7653 0.328302 78.237 0.33062C79.1174 0.337576 79.0284 0.235553 79.0307 1.07261C79.0334 4.60399 79.0307 8.13306 79.0307 11.6645V12.1978L79.2017 12.3462C79.2737 12.2117 79.3221 12.0563 79.4231 11.945C81.1021 10.0924 82.7839 8.23741 84.485 6.40101C84.639 6.23635 84.9277 6.10652 85.156 6.09955C86.3107 6.06941 87.4681 6.08563 88.7745 6.08563C86.5371 8.49017 84.3886 10.8019 82.1992 13.1554C84.4417 15.5738 86.6741 17.9829 88.9645 20.4547C88.7745 20.4802 88.6542 20.508 88.5338 20.508C87.5087 20.5127 86.4841 20.5266 85.4594 20.4964C85.2427 20.4895 84.9757 20.3689 84.829 20.2135C83.0509 18.3122 81.2926 16.3969 79.5287 14.484C79.3963 14.3403 79.2548 14.2011 79.0284 13.9692H79.0307Z" fill="#FAFAFA"/>
<path d="M43.7255 9.4549C42.78 9.98588 41.873 10.4937 40.9252 11.0246C40.112 9.61721 38.8898 8.89374 37.2467 8.82885C35.9235 8.77552 34.7591 9.13259 33.8016 10.0276C31.7879 11.915 32.0742 15.1056 33.9363 16.7125C35.6637 18.201 39.2868 18.3517 40.9973 15.5856C41.9091 16.0841 42.8234 16.5849 43.8699 17.1576C43.3358 17.7813 42.9075 18.4283 42.3374 18.9221C39.9917 20.9464 37.2395 21.4125 34.3164 20.4572C31.4872 19.532 29.7574 17.5263 29.2474 14.6813C28.67 11.4698 29.9451 8.41841 33.0533 6.66085C33.342 6.49854 33.6115 6.27592 33.9242 6.18783C36.1929 5.5409 38.4447 5.44352 40.6268 6.51014C41.7094 7.03881 42.6188 7.76685 43.2949 8.7477C43.4416 8.95868 43.5643 9.18592 43.7255 9.4549Z" fill="#FAFAFA"/>
<path d="M61.8943 17.51C62.8733 16.9605 63.7831 16.4504 64.7142 15.9287C64.7718 16.0052 64.8151 16.0492 64.8414 16.1003C65.7342 17.7813 67.8342 18.4978 69.6484 17.7326C70.1824 17.5077 70.5047 17.1367 70.5503 16.5524C70.596 15.9704 70.317 15.5507 69.8024 15.349C68.7966 14.9571 67.7595 14.6348 66.7349 14.2893C66.2295 14.1201 65.7098 13.9833 65.2094 13.7978C61.7499 12.5039 61.9759 8.5807 64.045 6.95297C66.9106 4.69919 71.9435 5.57563 73.5722 8.73834C72.6822 9.22297 71.7871 9.7099 70.863 10.2107C70.7888 10.111 70.7306 10.0391 70.6804 9.9603C69.8817 8.72674 68.3106 8.23057 66.8986 8.76848C66.3305 8.98648 65.9339 9.33425 65.9025 9.97888C65.8712 10.6119 66.2295 11.0084 66.7759 11.2101C67.7743 11.5788 68.8132 11.8524 69.8121 12.2187C70.6661 12.5318 71.5898 12.7915 72.3137 13.2992C74.5009 14.8343 74.4765 18.0433 72.3331 19.6316C70.774 20.7863 68.97 21.0229 67.0812 20.8397C65.3491 20.6727 63.8311 20.0513 62.71 18.7134C62.4094 18.3563 62.1853 17.939 61.8966 17.5077L61.8943 17.51Z" fill="#FAFAFA"/>
<path d="M22.2105 18.906C15.0147 17.4637 7.94883 17.4591 0.784328 18.9013L0.00244141 15.6157C1.00085 15.4116 1.92468 15.1937 2.85814 15.0407C7.69142 14.25 12.5511 14.1874 17.4133 14.6766C19.0925 14.8459 20.7477 15.2308 22.4174 15.4928C22.8335 15.5577 22.9515 15.7293 22.86 16.1096C22.6339 17.051 22.4198 17.9924 22.2081 18.9083L22.2105 18.906Z" fill="#6D40B5"/>
<path d="M22.2032 4.71764C22.4462 5.74947 22.7036 6.84155 22.9875 8.04964C15.2937 9.67271 7.71063 9.66111 0 8.04964C0.276668 6.87635 0.531685 5.78658 0.779483 4.72693C7.9584 6.17147 15.0243 6.17609 22.2032 4.71533V4.71764Z" fill="#6D40B5"/>
<path d="M1.47238 20.7582C4.86699 19.1259 18.6835 19.1468 21.52 20.7837C20.933 21.6834 20.3532 22.5854 19.7469 23.4688C19.6747 23.5732 19.4317 23.645 19.2922 23.6172C15.2216 22.808 11.1124 22.8984 7.00092 23.1465C5.93513 23.2114 4.87659 23.4294 3.82045 23.6056C3.49807 23.6589 3.28154 23.6265 3.10592 23.3436C2.57424 22.4857 2.02812 21.6393 1.46997 20.7582H1.47238Z" fill="#6D40B5"/>
<path d="M21.3757 3.08989C14.7837 4.48578 8.1942 4.48578 1.48682 3.05744C2.00166 1.8888 2.58146 0.935818 3.30801 0.0686204C3.37297 -0.00789675 3.58709 -0.0102155 3.71941 0.0129716C7.59034 0.706267 11.4878 0.803649 15.3996 0.483671C16.6987 0.377008 17.9907 0.156732 19.2874 0.00369676C19.4293 -0.0125342 19.6603 0.0245651 19.7252 0.117313C20.3387 1.01697 20.9234 1.93286 21.5152 2.84411L21.378 3.08989H21.3757Z" fill="#6D40B5"/>
</g>
<defs>
<clipPath id="clip0_251_3705">
<rect width="89" height="24" fill="white"/>
</clipPath>
</defs>
</svg>
