<svg width="16" height="16" viewBox="0 0 16 16" fill="none" xmlns="http://www.w3.org/2000/svg">
<path d="M10.6667 8.60004V11.4C10.6667 13.7334 9.73334 14.6667 7.40001 14.6667H4.60001C2.26668 14.6667 1.33334 13.7334 1.33334 11.4V8.60004C1.33334 6.26671 2.26668 5.33337 4.60001 5.33337H7.40001C9.73334 5.33337 10.6667 6.26671 10.6667 8.60004Z" stroke="#315DF1" stroke-width="1.5" stroke-linecap="round" stroke-linejoin="round"/>
<path d="M14.6667 4.60004V7.40004C14.6667 9.73337 13.7333 10.6667 11.4 10.6667H10.6667V8.60004C10.6667 6.26671 9.73334 5.33337 7.40001 5.33337H5.33334V4.60004C5.33334 2.26671 6.26668 1.33337 8.60001 1.33337H11.4C13.7333 1.33337 14.6667 2.26671 14.6667 4.60004Z" stroke="#315DF1" stroke-width="1.5" stroke-linecap="round" stroke-linejoin="round"/>
</svg>
