<svg width="42" height="42" viewBox="0 0 42 42" fill="none" xmlns="http://www.w3.org/2000/svg">
<rect width="42" height="42" rx="4" fill="#315DF1"/>
<path d="M18.75 18.2856H22.2635C23.0423 18.2856 23.674 18.9866 23.674 19.6962C23.674 20.4751 23.0423 21.1068 22.2635 21.1068H18.75V18.2856Z" stroke="white" stroke-miterlimit="10" stroke-linecap="round" stroke-linejoin="round"/>
<path d="M18.75 21.0981H22.7654C23.6567 21.0981 24.375 21.7299 24.375 22.5087C24.375 23.2876 23.6567 23.9193 22.7654 23.9193H18.75V21.0981Z" stroke="white" stroke-miterlimit="10" stroke-linecap="round" stroke-linejoin="round"/>
<path d="M21.2077 23.9106V25.3212" stroke="white" stroke-miterlimit="10" stroke-linecap="round" stroke-linejoin="round"/>
<path d="M19.4509 23.9106V25.3212" stroke="white" stroke-miterlimit="10" stroke-linecap="round" stroke-linejoin="round"/>
<path d="M21.2077 16.875V18.2856" stroke="white" stroke-miterlimit="10" stroke-linecap="round" stroke-linejoin="round"/>
<path d="M19.4509 16.875V18.2856" stroke="white" stroke-miterlimit="10" stroke-linecap="round" stroke-linejoin="round"/>
<path d="M20.0827 18.2856H17.625" stroke="white" stroke-miterlimit="10" stroke-linecap="round" stroke-linejoin="round"/>
<path d="M20.0827 23.9106H17.625" stroke="white" stroke-miterlimit="10" stroke-linecap="round" stroke-linejoin="round"/>
<path d="M21 28.5C25.1421 28.5 28.5 25.1421 28.5 21C28.5 16.8579 25.1421 13.5 21 13.5C16.8579 13.5 13.5 16.8579 13.5 21C13.5 25.1421 16.8579 28.5 21 28.5Z" stroke="white" stroke-miterlimit="10"/>
</svg>
