<svg width="42" height="42" viewBox="0 0 42 42" fill="none" xmlns="http://www.w3.org/2000/svg">
<rect width="42" height="42" rx="4" fill="#315DF1"/>
<path d="M27 17.28V24.72C27 25.86 26.895 26.67 26.625 27.2475C26.625 27.255 26.6175 27.27 26.61 27.2775C26.445 27.4875 26.2275 27.5925 25.9725 27.5925C25.575 27.5925 25.095 27.33 24.5775 26.775C23.9625 26.115 23.0175 26.1675 22.4775 26.8875L21.72 27.8925C21.42 28.2975 21.0225 28.5 20.625 28.5C20.2275 28.5 19.83 28.2975 19.53 27.8925L18.765 26.88C18.2325 26.1675 17.295 26.115 16.68 26.7675L16.6725 26.775C15.825 27.6825 15.075 27.8175 14.64 27.2775C14.6325 27.27 14.625 27.255 14.625 27.2475C14.355 26.67 14.25 25.86 14.25 24.72V17.28C14.25 16.14 14.355 15.33 14.625 14.7525C14.625 14.745 14.625 14.7375 14.64 14.73C15.0675 14.1825 15.825 14.3175 16.6725 15.225L16.68 15.2325C17.295 15.885 18.2325 15.8325 18.765 15.12L19.53 14.1075C19.83 13.7025 20.2275 13.5 20.625 13.5C21.0225 13.5 21.42 13.7025 21.72 14.1075L22.4775 15.1125C23.0175 15.8325 23.9625 15.885 24.5775 15.225C25.095 14.67 25.575 14.4075 25.9725 14.4075C26.2275 14.4075 26.445 14.52 26.61 14.73C26.625 14.7375 26.625 14.745 26.625 14.7525C26.895 15.33 27 16.14 27 17.28Z" stroke="white" stroke-linecap="round" stroke-linejoin="round"/>
<path d="M18 19.6875H24" stroke="white" stroke-linecap="round" stroke-linejoin="round"/>
<path d="M18 22.3125H22.5" stroke="white" stroke-linecap="round" stroke-linejoin="round"/>
</svg>
