<svg width="42" height="42" viewBox="0 0 42 42" fill="none" xmlns="http://www.w3.org/2000/svg">
<rect width="42" height="42" rx="4" fill="#315DF1"/>
<path d="M27.075 18.4575C28.605 18.7125 28.965 19.8225 27.8625 20.9175L26.0025 22.7775C25.6875 23.0925 25.515 23.7 25.6125 24.135L26.145 26.4375C26.565 28.26 25.5975 28.965 23.985 28.0125L21.7425 26.685C21.3375 26.445 20.67 26.445 20.2575 26.685L18.015 28.0125C16.41 28.965 15.435 28.2525 15.855 26.4375L16.3875 24.135C16.485 23.7 16.3125 23.0925 15.9975 22.7775L14.1375 20.9175C13.0425 19.8225 13.395 18.7125 14.925 18.4575L17.3175 18.06C17.715 17.9925 18.195 17.64 18.375 17.2725L19.695 14.6325C20.4075 13.2 21.5775 13.2 22.2975 14.6325L23.6175 17.2725C23.6925 17.43 23.8275 17.5875 23.985 17.715" stroke="white" stroke-linecap="round" stroke-linejoin="round"/>
</svg>
