<svg width="42" height="42" viewBox="0 0 42 42" fill="none" xmlns="http://www.w3.org/2000/svg">
<rect width="42" height="42" rx="4" fill="#315DF1"/>
<path d="M21 27.1875C17.5875 27.1875 14.8125 24.4125 14.8125 21C14.8125 17.5875 17.5875 14.8125 21 14.8125C24.4125 14.8125 27.1875 17.5875 27.1875 21C27.1875 24.4125 24.4125 27.1875 21 27.1875ZM21 15.9375C18.21 15.9375 15.9375 18.21 15.9375 21C15.9375 23.79 18.21 26.0625 21 26.0625C23.79 26.0625 26.0625 23.79 26.0625 21C26.0625 18.21 23.79 15.9375 21 15.9375Z" fill="white"/>
<path d="M21 23.8125C19.4475 23.8125 18.1875 22.5525 18.1875 21C18.1875 19.4475 19.4475 18.1875 21 18.1875C22.5525 18.1875 23.8125 19.4475 23.8125 21C23.8125 22.5525 22.5525 23.8125 21 23.8125ZM21 19.3125C20.07 19.3125 19.3125 20.07 19.3125 21C19.3125 21.93 20.07 22.6875 21 22.6875C21.93 22.6875 22.6875 21.93 22.6875 21C22.6875 20.07 21.93 19.3125 21 19.3125Z" fill="white"/>
<path d="M21 15.5625C20.6925 15.5625 20.4375 15.3075 20.4375 15V13.5C20.4375 13.1925 20.6925 12.9375 21 12.9375C21.3075 12.9375 21.5625 13.1925 21.5625 13.5V15C21.5625 15.3075 21.3075 15.5625 21 15.5625Z" fill="white"/>
<path d="M15 21.5625H13.5C13.1925 21.5625 12.9375 21.3075 12.9375 21C12.9375 20.6925 13.1925 20.4375 13.5 20.4375H15C15.3075 20.4375 15.5625 20.6925 15.5625 21C15.5625 21.3075 15.3075 21.5625 15 21.5625Z" fill="white"/>
<path d="M21 29.0625C20.6925 29.0625 20.4375 28.8075 20.4375 28.5V27C20.4375 26.6925 20.6925 26.4375 21 26.4375C21.3075 26.4375 21.5625 26.6925 21.5625 27V28.5C21.5625 28.8075 21.3075 29.0625 21 29.0625Z" fill="white"/>
<path d="M28.5 21.5625H27C26.6925 21.5625 26.4375 21.3075 26.4375 21C26.4375 20.6925 26.6925 20.4375 27 20.4375H28.5C28.8075 20.4375 29.0625 20.6925 29.0625 21C29.0625 21.3075 28.8075 21.5625 28.5 21.5625Z" fill="white"/>
</svg>
