<svg width="42" height="42" viewBox="0 0 42 42" fill="none" xmlns="http://www.w3.org/2000/svg">
<rect width="42" height="42" rx="4" fill="#315DF1"/>
<path d="M25.875 21.4875V24.2625C25.875 26.6025 23.6925 28.5 21 28.5C18.3075 28.5 16.125 26.6025 16.125 24.2625V21.4875C16.125 23.8275 18.3075 25.5 21 25.5C23.6925 25.5 25.875 23.8275 25.875 21.4875Z" stroke="white" stroke-linecap="round" stroke-linejoin="round"/>
<path d="M25.875 17.7375C25.875 18.42 25.6875 19.05 25.3575 19.59C24.555 20.91 22.905 21.75 21 21.75C19.095 21.75 17.445 20.91 16.6425 19.59C16.3125 19.05 16.125 18.42 16.125 17.7375C16.125 16.5675 16.6725 15.51 17.55 14.745C18.435 13.9725 19.65 13.5 21 13.5C22.35 13.5 23.565 13.9725 24.45 14.7375C25.3275 15.51 25.875 16.5675 25.875 17.7375Z" stroke="white" stroke-linecap="round" stroke-linejoin="round"/>
<path d="M25.875 17.7375V21.4875C25.875 23.8275 23.6925 25.5 21 25.5C18.3075 25.5 16.125 23.8275 16.125 21.4875V17.7375C16.125 15.3975 18.3075 13.5 21 13.5C22.35 13.5 23.565 13.9725 24.45 14.7375C25.3275 15.51 25.875 16.5675 25.875 17.7375Z" stroke="white" stroke-linecap="round" stroke-linejoin="round"/>
</svg>
