<svg width="20" height="21" viewBox="0 0 20 21" fill="none" xmlns="http://www.w3.org/2000/svg">
<path d="M16.6666 10.5V15.5C16.6666 17.3416 15.175 18.8333 13.3333 18.8333H6.66665C4.82498 18.8333 3.33331 17.3416 3.33331 15.5V10.5C3.33331 10.0416 3.70831 9.66662 4.16665 9.66662H5.80831C6.26665 9.66662 6.64165 10.0416 6.64165 10.5V13.1166C6.64165 13.7333 6.98331 14.3 7.52498 14.5916C7.76665 14.725 8.03331 14.7916 8.30831 14.7916C8.62498 14.7916 8.94165 14.7 9.21665 14.5166L10.0083 14L10.7416 14.4916C11.25 14.8333 11.9 14.875 12.4416 14.5833C12.9916 14.2916 13.3333 13.7333 13.3333 13.1083V10.5C13.3333 10.0416 13.7083 9.66662 14.1666 9.66662H15.8333C16.2916 9.66662 16.6666 10.0416 16.6666 10.5Z" fill="#292D32"/>
<path d="M16.6666 10.5V15.5C16.6666 17.3416 15.175 18.8333 13.3333 18.8333H6.66665C4.82498 18.8333 3.33331 17.3416 3.33331 15.5V10.5C3.33331 10.0416 3.70831 9.66662 4.16665 9.66662H5.80831C6.26665 9.66662 6.64165 10.0416 6.64165 10.5V13.1166C6.64165 13.7333 6.98331 14.3 7.52498 14.5916C7.76665 14.725 8.03331 14.7916 8.30831 14.7916C8.62498 14.7916 8.94165 14.7 9.21665 14.5166L10.0083 14L10.7416 14.4916C11.25 14.8333 11.9 14.875 12.4416 14.5833C12.9916 14.2916 13.3333 13.7333 13.3333 13.1083V10.5C13.3333 10.0416 13.7083 9.66662 14.1666 9.66662H15.8333C16.2916 9.66662 16.6666 10.0416 16.6666 10.5Z" fill="url(#paint0_linear_888_8959)"/>
<path d="M17.9166 6.33328V7.16662C17.9166 8.08328 17.475 8.83328 16.25 8.83328H3.74998C2.47498 8.83328 2.08331 8.08328 2.08331 7.16662V6.33328C2.08331 5.41662 2.47498 4.66662 3.74998 4.66662H16.25C17.475 4.66662 17.9166 5.41662 17.9166 6.33328Z" fill="#292D32"/>
<path d="M17.9166 6.33328V7.16662C17.9166 8.08328 17.475 8.83328 16.25 8.83328H3.74998C2.47498 8.83328 2.08331 8.08328 2.08331 7.16662V6.33328C2.08331 5.41662 2.47498 4.66662 3.74998 4.66662H16.25C17.475 4.66662 17.9166 5.41662 17.9166 6.33328Z" fill="url(#paint1_linear_888_8959)"/>
<path d="M9.69998 4.66662H5.09998C4.81665 4.35828 4.82498 3.88328 5.12498 3.58328L6.30831 2.39995C6.61665 2.09162 7.12498 2.09162 7.43331 2.39995L9.69998 4.66662Z" fill="#292D32"/>
<path d="M9.69998 4.66662H5.09998C4.81665 4.35828 4.82498 3.88328 5.12498 3.58328L6.30831 2.39995C6.61665 2.09162 7.12498 2.09162 7.43331 2.39995L9.69998 4.66662Z" fill="url(#paint2_linear_888_8959)"/>
<path d="M14.8916 4.66662H10.2916L12.5583 2.39995C12.8666 2.09162 13.375 2.09162 13.6833 2.39995L14.8666 3.58328C15.1666 3.88328 15.175 4.35828 14.8916 4.66662Z" fill="#292D32"/>
<path d="M14.8916 4.66662H10.2916L12.5583 2.39995C12.8666 2.09162 13.375 2.09162 13.6833 2.39995L14.8666 3.58328C15.1666 3.88328 15.175 4.35828 14.8916 4.66662Z" fill="url(#paint3_linear_888_8959)"/>
<path d="M11.6416 9.66662C12.1 9.66662 12.475 10.0416 12.475 10.5V13.1083C12.475 13.775 11.7333 14.175 11.1833 13.8L10.4333 13.3C10.1583 13.1166 9.79998 13.1166 9.51665 13.3L8.73331 13.8166C8.18331 14.1833 7.44998 13.7833 7.44998 13.125V10.5C7.44998 10.0416 7.82498 9.66662 8.28331 9.66662H11.6416Z" fill="#292D32"/>
<path d="M11.6416 9.66662C12.1 9.66662 12.475 10.0416 12.475 10.5V13.1083C12.475 13.775 11.7333 14.175 11.1833 13.8L10.4333 13.3C10.1583 13.1166 9.79998 13.1166 9.51665 13.3L8.73331 13.8166C8.18331 14.1833 7.44998 13.7833 7.44998 13.125V10.5C7.44998 10.0416 7.82498 9.66662 8.28331 9.66662H11.6416Z" fill="url(#paint4_linear_888_8959)"/>
<defs>
<linearGradient id="paint0_linear_888_8959" x1="-5.62502" y1="18" x2="5.45004" y2="-3.0452" gradientUnits="userSpaceOnUse">
<stop stop-color="#4AC7FA"/>
<stop offset="1" stop-color="#E649F5"/>
</linearGradient>
<linearGradient id="paint1_linear_888_8959" x1="-5.62502" y1="18" x2="5.45004" y2="-3.0452" gradientUnits="userSpaceOnUse">
<stop stop-color="#4AC7FA"/>
<stop offset="1" stop-color="#E649F5"/>
</linearGradient>
<linearGradient id="paint2_linear_888_8959" x1="-5.62502" y1="18" x2="5.45004" y2="-3.0452" gradientUnits="userSpaceOnUse">
<stop stop-color="#4AC7FA"/>
<stop offset="1" stop-color="#E649F5"/>
</linearGradient>
<linearGradient id="paint3_linear_888_8959" x1="-5.62502" y1="18" x2="5.45004" y2="-3.0452" gradientUnits="userSpaceOnUse">
<stop stop-color="#4AC7FA"/>
<stop offset="1" stop-color="#E649F5"/>
</linearGradient>
<linearGradient id="paint4_linear_888_8959" x1="-5.62502" y1="18" x2="5.45004" y2="-3.0452" gradientUnits="userSpaceOnUse">
<stop stop-color="#4AC7FA"/>
<stop offset="1" stop-color="#E649F5"/>
</linearGradient>
</defs>
</svg>
