<svg width="18" height="19" viewBox="0 0 18 19" fill="none" xmlns="http://www.w3.org/2000/svg">
<path d="M9 1.4375C13.4475 1.4375 17.0625 5.0525 17.0625 9.5C17.0625 13.9475 13.4475 17.5625 9 17.5625C4.5525 17.5625 0.9375 13.9475 0.9375 9.5C0.9375 5.0525 4.5525 1.4375 9 1.4375ZM9 16.4375C12.825 16.4375 15.9375 13.325 15.9375 9.5C15.9375 5.675 12.825 2.5625 9 2.5625C5.175 2.5625 2.0625 5.675 2.0625 9.5C2.0625 13.325 5.175 16.4375 9 16.4375Z" fill="white"/>
<path d="M9 8.1875C9.3075 8.1875 9.5625 8.4425 9.5625 8.75V12.5C9.5625 12.8075 9.3075 13.0625 9 13.0625C8.6925 13.0625 8.4375 12.8075 8.4375 12.5V8.75C8.4375 8.4425 8.6925 8.1875 9 8.1875Z" fill="white"/>
<path d="M9 5.74997C9.0975 5.74997 9.195 5.77247 9.285 5.80997C9.375 5.84747 9.4575 5.89997 9.5325 5.96747C9.6 6.04247 9.6525 6.11747 9.69 6.21497C9.7275 6.30497 9.75 6.40247 9.75 6.49997C9.75 6.59747 9.7275 6.69497 9.69 6.78497C9.6525 6.87497 9.6 6.95747 9.5325 7.03247C9.4575 7.09997 9.375 7.15247 9.285 7.18997C9.105 7.26497 8.895 7.26497 8.715 7.18997C8.625 7.15247 8.5425 7.09997 8.4675 7.03247C8.4 6.95747 8.3475 6.87497 8.31 6.78497C8.2725 6.69497 8.25 6.59747 8.25 6.49997C8.25 6.40247 8.2725 6.30497 8.31 6.21497C8.3475 6.11747 8.4 6.04247 8.4675 5.96747C8.5425 5.89997 8.625 5.84747 8.715 5.80997C8.805 5.77247 8.9025 5.74997 9 5.74997Z" fill="white"/>
</svg>
