<svg width="31" height="35" viewBox="0 0 31 35" fill="none" xmlns="http://www.w3.org/2000/svg">
<path fill-rule="evenodd" clip-rule="evenodd" d="M16.0235 17.5007C15.9829 17.5236 15.9578 17.566 15.9578 17.6119V34.7435C15.9578 34.8426 16.0676 34.9042 16.1548 34.854L30.9354 26.3537C30.9754 26.3307 31 26.2887 31 26.2432V9.30049C31 9.20198 30.8913 9.1403 30.8041 9.18933L16.0235 17.5007ZM25.6377 18.0144L21.3212 20.4419C21.24 20.4876 21.1899 20.5724 21.1899 20.6642V25.6766C21.1899 25.8748 21.4095 25.998 21.5839 25.8977L25.9004 23.415C25.9804 23.3689 26.0295 23.2848 26.0295 23.1939V18.2367C26.0295 18.0396 25.8121 17.9163 25.6377 18.0144Z" fill="white"/>
<path fill-rule="evenodd" clip-rule="evenodd" d="M14.9765 17.6289C15.0171 17.6517 15.0422 17.6941 15.0422 17.74V34.8716C15.0422 34.9707 14.9324 35.0323 14.8452 34.9822L0.0645898 26.4819C0.0245773 26.4589 0 26.4168 0 26.3714V9.42865C0 9.33014 0.108709 9.26846 0.19591 9.31749L14.9765 17.6289ZM5.49308 18.0143L9.81019 20.4419C9.89146 20.4876 9.94158 20.5724 9.94158 20.6642V25.6767C9.94158 25.8748 9.72194 25.998 9.54755 25.8977L5.23044 23.415C5.15042 23.3689 5.10126 23.2848 5.10126 23.1939V18.2366C5.10126 18.0396 5.31868 17.9163 5.49308 18.0143Z" fill="white"/>
<path fill-rule="evenodd" clip-rule="evenodd" d="M0.587858 8.45493L15.3688 0.0174231C15.4095 -0.00580769 15.4598 -0.00580769 15.5004 0.0174231L30.2813 8.45493C30.3683 8.50455 30.3679 8.62775 30.2806 8.67682L15.4997 16.9884C15.4594 17.0111 15.4098 17.0111 15.3695 16.9884L0.588598 8.67682C0.501335 8.62775 0.500924 8.50455 0.587858 8.45493ZM15.3027 5.30983L10.0691 8.30398C9.89557 8.40328 9.89638 8.64931 10.0706 8.74751L15.3042 11.697C15.3849 11.7425 15.4843 11.7425 15.565 11.697L20.7986 8.74751C20.9728 8.64931 20.9736 8.40328 20.8001 8.30398L15.5665 5.30983C15.485 5.2632 15.3842 5.2632 15.3027 5.30983Z" fill="white"/>
</svg>
