<svg width="109" height="24" viewBox="0 0 109 24" fill="none" xmlns="http://www.w3.org/2000/svg">
<g clip-path="url(#clip0_251_3714)">
<path d="M55.0919 11.7972C54.8983 15.5478 54.1451 18.7834 51.3286 21.1908C45.1715 26.4553 35.1917 23.2454 33.3487 15.377C32.4645 11.6037 32.8128 7.88152 35.2274 4.65167C37.9487 1.00919 41.8608 -0.0949326 46.3357 0.68763C50.9803 1.5015 53.5943 4.4041 54.6423 8.68115C54.9162 9.79666 54.9758 10.9577 55.0949 11.7972H55.0919ZM47.8095 6.83713C46.3119 5.07283 44.5255 4.64882 42.4771 5.25496C39.7201 6.06881 37.9843 10.5565 39.3271 13.5188C42.1317 11.3106 44.9066 9.1251 47.8095 6.83713ZM40.1965 17.3719C42.7123 19.8135 46.4042 19.6769 47.9255 17.1186C49.0867 15.1665 49.2891 13.0322 48.9884 10.75C48.6937 10.8524 48.515 10.8724 48.3989 10.9634C45.6926 13.0692 42.9951 15.1836 40.1965 17.3719Z" fill="#FAFAFA"/>
<path d="M76.582 1.06338L68.5702 23.2028H62.3121L54.0054 1.07476H60.8592L65.5034 16.4699L70.0323 1.04346L76.582 1.06338Z" fill="#FAFAFA"/>
<path d="M84.4064 1.09131H78.1929V22.8722H84.4064V1.09131Z" fill="#FAFAFA"/>
<path d="M6.10356 12.85C4.60897 12.85 3.11437 12.8556 1.61977 12.85C0.503289 12.8443 0.107312 12.1926 0.655134 11.2792C2.13782 8.80057 3.62051 6.32197 5.11511 3.84907C5.71949 2.84739 6.48466 2.85308 7.10094 3.86614C8.60451 6.33337 10.0991 8.80624 11.5877 11.282C12.1117 12.1528 11.7068 12.8386 10.6648 12.85C9.14637 12.8642 7.62499 12.8528 6.10658 12.8528L6.10356 12.85Z" fill="#7757AB"/>
<path d="M13.776 1.29639C15.2706 1.29639 16.7623 1.28501 18.2569 1.29639C19.3585 1.30778 19.7634 1.96798 19.2125 2.88713C17.7061 5.40556 16.1846 7.91831 14.6513 10.4225C14.1422 11.2534 13.3473 11.2279 12.8322 10.3798C11.3197 7.89267 9.81029 5.39987 8.31271 2.90421C7.7321 1.93667 8.11913 1.30778 9.29519 1.29639C10.7898 1.28217 12.2814 1.29355 13.776 1.2907V1.29639Z" fill="#B28FE9"/>
<path d="M21.3771 12.7961C19.8825 12.7961 18.3879 12.8075 16.8933 12.7904C15.8274 12.779 15.4464 12.1359 15.9793 11.2481C17.4769 8.74954 18.9804 6.25676 20.4929 3.76392C21.0258 2.8846 21.8297 2.86752 22.3626 3.7383C23.8929 6.24536 25.4114 8.76094 26.9179 11.2822C27.424 12.1331 27.037 12.7762 26.0128 12.7876C24.4675 12.8075 22.9224 12.7933 21.3771 12.7933V12.7961Z" fill="#7757AB"/>
<path d="M21.5676 14.1393C23.0354 14.1393 24.5061 14.1308 25.974 14.1422C27.2006 14.1535 27.5638 14.7625 26.9535 15.7813C25.4976 18.2172 24.0357 20.6503 22.5679 23.0804C21.9486 24.1021 21.1983 24.1135 20.585 23.1089C19.0934 20.6644 17.6077 18.2143 16.131 15.7642C15.5475 14.7967 15.9226 14.1592 17.0867 14.145C18.5813 14.1279 20.073 14.1422 21.5676 14.1422V14.1393Z" fill="#7757AB"/>
<path d="M5.97861 14.1419C7.4464 14.1419 8.91716 14.1305 10.385 14.1419C11.6146 14.1504 11.9808 14.7651 11.3764 15.7725C9.93839 18.1657 8.50929 20.5618 7.0653 22.9493C6.33882 24.1502 5.64513 24.1616 4.9276 22.9834C3.44788 20.5589 1.98008 18.1287 0.51525 15.6985C-0.0206621 14.8106 0.348516 14.1646 1.42034 14.1476C2.93876 14.1248 4.46017 14.1419 5.97861 14.1419Z" fill="#7757AB"/>
<path d="M86.3804 1.09424H93.7491L97.4471 7.22954L101.133 1.09424H108.228L100.984 11.6518L108.549 22.8125H101.106L97.2268 16.3813L93.5197 22.8125H85.9724L93.9037 11.8168L86.3804 1.09424Z" fill="#FAFAFA"/>
</g>
<defs>
<clipPath id="clip0_251_3714">
<rect width="109" height="24" fill="white"/>
</clipPath>
</defs>
</svg>
