<svg width="50" height="32" viewBox="0 0 50 32" fill="none" xmlns="http://www.w3.org/2000/svg">
<rect width="50" height="32" rx="3" fill="#1A1919"/>
<path fill-rule="evenodd" clip-rule="evenodd" d="M14.064 22.7145H15.4276V26.9207H16.4003V22.715H17.7177V21.8945H14.064V22.7145ZM27.348 23.4112H26.2804L25.0261 24.9087V22.0022L24.0975 22.3409V26.9207H25.0261V25.2047L26.2512 26.9207H27.3554L25.9774 25.033L27.348 23.4112ZM29.8914 25.5875C29.8574 25.7174 29.8073 25.8316 29.7441 25.9297C29.6787 26.0287 29.5989 26.1058 29.503 26.1603C29.4024 26.2167 29.2887 26.2453 29.1734 26.2432C28.9214 26.2432 28.7287 26.1481 28.5953 25.9589C28.4619 25.7693 28.3948 25.5012 28.3948 25.1546C28.3948 24.8477 28.4597 24.5922 28.5875 24.3912C28.7169 24.1889 28.904 24.0882 29.1512 24.0882C29.4127 24.0882 29.6102 24.1885 29.7432 24.3873C29.877 24.587 29.9433 24.8477 29.9433 25.1698C29.9433 25.3181 29.9259 25.4576 29.8918 25.5875H29.8914ZM30.4054 23.8219C30.2541 23.6621 30.0694 23.5378 29.8644 23.4578C29.6443 23.3719 29.4097 23.3289 29.1734 23.3314C28.9368 23.3289 28.7019 23.3718 28.4815 23.4578C28.2767 23.5379 28.0912 23.6606 27.9374 23.8179C27.7862 23.974 27.6676 24.1667 27.5843 24.3943C27.5015 24.6223 27.4592 24.8812 27.4592 25.1698C27.4592 25.448 27.4997 25.7004 27.5813 25.9262C27.6615 26.1525 27.7753 26.3448 27.9231 26.503C28.07 26.6617 28.2474 26.7838 28.4562 26.8705C28.6794 26.9595 28.9179 27.0035 29.1581 27C29.3947 27.0023 29.6295 26.9596 29.85 26.874C30.0555 26.7933 30.2411 26.6691 30.3941 26.51C30.5467 26.3509 30.6652 26.1577 30.7511 25.9297C30.837 25.7017 30.8802 25.4428 30.8802 25.1546C30.8802 24.8769 30.8383 24.6236 30.7542 24.3982C30.6784 24.1842 30.5598 23.9879 30.4054 23.8214V23.8219ZM18.6546 21.8941C18.4955 21.8941 18.3625 21.9481 18.2553 22.0527C18.2039 22.1027 18.1632 22.1626 18.1357 22.2288C18.1082 22.2949 18.0944 22.366 18.0953 22.4377C18.0953 22.5829 18.1498 22.7076 18.2553 22.8148C18.3629 22.9203 18.4955 22.9735 18.6546 22.9735C18.8037 22.9735 18.9327 22.9203 19.0417 22.8148C19.0938 22.7668 19.1353 22.7085 19.1636 22.6436C19.1919 22.5786 19.2064 22.5085 19.2061 22.4377C19.2061 22.2873 19.1516 22.1596 19.0417 22.0527C18.991 22.0019 18.9306 21.9617 18.8641 21.9345C18.7976 21.9073 18.7264 21.8935 18.6546 21.8941ZM18.1825 26.9207H19.1185V23.4025H18.1825V26.9207ZM22.0137 23.3698C21.3336 23.3188 20.9486 23.6937 20.9486 23.6937V23.4033H20.0126V26.9202H20.9486V24.825C20.9486 24.4688 21.2442 24.1798 21.6086 24.1798C21.9727 24.1798 22.2683 24.4688 22.2683 24.825V26.9207H23.2038V24.8394C23.2038 23.7364 22.5682 23.4108 22.0137 23.3698ZM31.7704 23.331V23.3964H31.2093V24.1174H31.7704V26.9207H32.7064V24.1174H33.2657V23.3964H32.7073V23.3227C32.7073 22.8375 32.9327 22.5986 33.3747 22.6688L33.5203 21.9407C32.0969 21.7698 31.7704 22.5327 31.7704 23.3314V23.331ZM34.1856 23.331V23.3964H33.6245V24.1174H34.1856V26.9207H35.122V24.1174H35.6814V23.3964H35.1225V23.3227C35.1225 22.8375 35.3483 22.5986 35.7895 22.6688L35.936 21.9407C34.5121 21.7698 34.1856 22.5327 34.1856 23.3314" fill="white"/>
<path d="M32.9682 11.8356L33.1704 11.148L32.4626 11.1682C32.4019 11.1682 31.9772 11.148 31.5525 10.8447H31.6536C32.0783 10.8447 32.503 10.5818 32.6648 10.2177L32.9682 9.55035C32.5839 9.55035 32.2401 9.5099 32.2401 9.5099C32.2401 9.5099 31.957 9.46945 31.6536 9.14587C31.4311 8.92341 31.148 8.80207 30.8447 8.80207C30.7031 8.80207 30.602 8.82229 30.5009 8.86274C30.5211 8.80207 30.5413 8.76162 30.5413 8.70095C30.6424 8.07401 30.2379 7.58864 30.2379 7.58864L29.7121 6.94148L29.3885 7.70998C29.3885 7.70998 29.3077 7.892 29.1661 7.97289C29.1256 7.75043 29.0043 7.48752 28.7818 7.24484C28.3369 6.77969 27.8111 6.71902 27.528 6.71902C27.4066 6.71902 27.3055 6.73924 27.2853 6.73924L26.6381 6.86059C26.6786 6.71902 26.7595 6.47633 26.901 6.25387L27.2448 5.70783L26.3348 5.80895L26.0516 5.20224L25.5056 5.48537L25 5L24.5146 5.50559L23.9686 5.22246L23.6854 5.82917L22.7956 5.72806L23.1394 6.2741C23.281 6.49656 23.3619 6.73924 23.4023 6.88081L22.7956 6.75947H22.7754C22.7349 6.75947 22.654 6.73924 22.5125 6.73924C22.2293 6.73924 21.7035 6.79991 21.2586 7.26506C21.0159 7.50775 20.9148 7.77066 20.8743 7.99312C20.7328 7.91222 20.6519 7.73021 20.6519 7.73021L20.3283 6.96171L19.7823 7.62909C19.7216 7.70998 19.398 8.15491 19.4789 8.72117C19.4789 8.78184 19.4991 8.82229 19.5194 8.88296C19.4182 8.84252 19.2969 8.82229 19.1755 8.82229C18.8722 8.82229 18.5891 8.94363 18.3666 9.1661C18.043 9.48968 17.7801 9.53012 17.7801 9.53012C17.7801 9.53012 17.497 9.59079 17.0521 9.57057L17.3554 10.238C17.5172 10.602 17.9419 10.8649 18.3666 10.8649H18.4677C18.043 11.1682 17.6183 11.1885 17.5576 11.1885L16.8296 11.148L17.0521 11.8356C17.1532 12.1794 17.5172 12.7659 18.225 12.8266C18.1441 13.1502 17.9823 13.494 17.6183 13.6558L17.0925 13.8782L17.3756 14.3838C17.5374 14.6467 17.9217 14.9703 18.4677 14.9703C18.5891 14.9703 18.7104 14.9501 18.8115 14.9299C18.8317 15.0512 18.8722 15.1726 18.9126 15.2939C19.0744 15.7793 18.9329 16.1231 18.9329 16.1231L18.67 16.6691L19.2564 16.8309C19.2564 16.8309 19.4385 16.8916 19.6609 16.8916C19.762 16.8916 19.8632 16.8713 19.944 16.8511C20.0047 16.8309 20.0856 16.8107 20.1463 16.7905C20.2272 16.932 20.3081 17.0534 20.4294 17.1545C20.8137 17.5387 21.3395 17.741 22.0069 17.741H22.4922L21.5013 18.1454L22.2496 18.5095C22.5327 18.651 22.8563 18.7926 23.1799 18.9139L23.0787 19.1769L23.3416 19.2982C23.3619 19.3184 23.8675 19.5409 24.6966 19.5813H25.3033C26.1325 19.5409 26.6381 19.3184 26.6583 19.2982L26.9212 19.1769L26.8201 18.9139C27.1639 18.7926 27.5077 18.6308 27.7706 18.4892L28.5189 18.1252L27.528 17.7207H28.0133C28.6807 17.7207 29.2268 17.5185 29.5908 17.1343C29.6919 17.0331 29.793 16.8916 29.8739 16.7702C29.9346 16.7905 29.9953 16.8107 30.0762 16.8309C30.1571 16.8511 30.2582 16.8713 30.3593 16.8713C30.5817 16.8713 30.7638 16.8309 30.7638 16.8309L31.3503 16.6691L31.0873 16.1231C31.0873 16.1028 30.9458 15.7793 31.1076 15.2939C31.148 15.1726 31.1885 15.0512 31.2087 14.9299C31.3098 14.9501 31.4311 14.9703 31.5525 14.9703C32.2603 14.9703 32.5839 14.4849 32.6446 14.3636L32.9277 13.858L32.4019 13.6355C32.0379 13.4738 31.8558 13.13 31.7952 12.8064C32.4828 12.7659 32.867 12.1794 32.9682 11.8356ZM25 7.08305C24.4337 7.08305 24.009 7.26506 23.9281 7.48752L25 7.91222L26.0718 7.48752C25.991 7.26506 25.5663 7.08305 25 7.08305ZM25.0202 18.3477H25C24.6562 18.3477 24.191 18.287 23.9686 18.2061L23.6854 18.9544C23.8675 19.0151 24.4742 19.1364 25 19.1364C25.5258 19.1364 26.1527 19.0151 26.3145 18.9544L26.0516 18.2061C25.8292 18.287 25.364 18.3477 25.0202 18.3477Z" fill="white"/>
<path d="M27.0832 17.6195C26.881 17.7409 26.4361 17.9027 26.1731 17.9835L26.3956 18.5903C26.8001 18.4689 27.1439 18.3476 27.427 18.206L26.9416 18.0644L27.0832 17.6195ZM22.9373 17.6195L23.0789 18.0644L22.6138 18.2262C22.8969 18.3678 23.2205 18.4891 23.6452 18.6105L23.8676 18.0038C23.5845 17.9027 23.1396 17.7409 22.9373 17.6195ZM25.0002 6.37511C25.4249 6.37511 25.8496 6.47623 26.1731 6.65824C26.1934 6.55712 26.2338 6.43578 26.2945 6.31444L26.1731 6.33466L26.0518 6.35488L25.9911 6.23354L25.8293 5.88974L25.526 6.05153L25.4046 6.1122L25.3237 6.01108L25.0002 5.6875L24.6968 6.01108L24.5957 6.09198L24.4743 6.0313L24.171 5.86951L24.0092 6.21332L23.9485 6.33466L23.8272 6.31444L23.7058 6.29421C23.7665 6.41556 23.807 6.5369 23.8272 6.63802C24.171 6.47623 24.5755 6.37511 25.0002 6.37511ZM31.492 10.339C31.5527 10.3592 31.5931 10.3592 31.6538 10.3592C31.8965 10.3592 32.1189 10.1974 32.1998 10.0356C32.1998 10.0356 31.7549 10.0154 31.2898 9.53002C31.1482 9.36823 30.9864 9.32778 30.8448 9.32778C30.6224 9.32778 30.4808 9.44912 30.4808 9.44912C31.0673 9.73225 31.1684 10.2176 31.492 10.339ZM18.3465 10.3592C18.4072 10.3592 18.4679 10.3592 18.5083 10.339C18.8319 10.2378 18.9533 9.73225 19.5195 9.4289C19.5195 9.4289 19.3577 9.30755 19.1555 9.30755C19.0139 9.30755 18.8521 9.348 18.7106 9.50979C18.2454 9.99516 17.8005 10.0154 17.8005 10.0154C17.8814 10.1974 18.1039 10.3592 18.3465 10.3592ZM31.6538 12.3209H31.674C32.2807 12.3209 32.483 11.6737 32.483 11.6737H32.4627C32.3616 11.6737 31.4515 11.6535 30.8246 10.8446C30.3999 10.3187 30.0763 9.8536 29.3887 9.67158L29.3281 9.65136L29.3078 9.59069C29.2876 9.48957 29.3685 9.38845 29.5101 9.28733C30.4404 8.68062 29.8134 7.91211 29.8134 7.91211C29.8134 7.91211 29.5505 8.53905 28.964 8.53905H28.9236C28.8629 8.53905 28.782 8.53905 28.7213 8.51883L28.6202 8.4986C28.6202 8.4986 28.782 8.03346 28.3775 7.60876C28.0742 7.28518 27.6899 7.24473 27.4877 7.24473C27.3866 7.24473 27.3057 7.26495 27.3057 7.26495C27.5079 7.52786 27.6495 7.97279 27.427 8.25592C27.2248 8.4986 26.7192 8.4986 26.7192 8.86263C26.7192 9.0042 26.8608 9.18621 27.1034 9.348C27.8517 9.81315 28.6 10.4401 28.9034 11.2895C29.2876 12.3411 28.8629 13.0287 28.236 13.4332C28.236 13.4332 28.4382 13.6152 28.7213 13.6354H28.8831C29.4898 13.6354 29.7932 13.3523 29.7932 13.3523C29.7932 13.3523 29.7325 13.7366 29.4292 14.1006C29.146 14.4242 28.7618 14.6264 28.1955 14.6264C28.1955 14.6264 28.1753 14.8893 28.4382 15.132C28.6 15.2736 28.9842 15.3342 28.9842 15.3342C28.9842 15.3342 28.2764 15.4758 28.1955 16.5072C28.1551 17.0735 28.0135 17.2757 28.0135 17.2757H28.0337C29.6719 17.2757 29.6314 15.8803 29.6314 15.8803C29.6314 15.8803 29.7528 16.305 30.1977 16.4061C30.2583 16.4263 30.319 16.4263 30.3595 16.4263C30.501 16.4263 30.6426 16.3859 30.6426 16.3859C30.6426 16.3859 30.3999 15.8803 30.6426 15.1724C30.8448 14.586 30.8044 14.1613 30.8044 14.1613C30.8044 14.1613 31.0268 14.4848 31.5729 14.5051C32.0178 14.5051 32.22 14.1613 32.22 14.1613C31.128 13.7163 31.2291 12.24 31.2291 12.24C31.2291 12.24 31.3707 12.3209 31.6538 12.3209ZM31.3302 13.8377C30.8853 13.6152 30.6021 13.049 30.5415 12.8265C30.4606 13.9792 29.9145 14.768 29.2472 15.5365C28.9034 15.9409 28.782 16.3252 28.782 16.3252C28.782 16.3252 28.8427 15.8803 29.146 15.5365C29.7528 14.8084 30.3392 13.8781 30.3797 12.8265C30.3999 12.0782 30.2179 11.4917 29.9145 10.9861C30.0763 11.4917 30.0561 12.1389 29.4898 12.7254C29.4898 12.7254 30.6021 11.3906 29.0449 9.99516C28.418 9.46934 27.7304 9.14576 27.3866 8.9233C28.6607 9.348 29.2876 8.88286 29.2876 8.88286C28.8831 9.22666 28.3573 9.22666 28.0337 9.18621C28.1146 9.22666 28.2157 9.26711 28.3169 9.32778C29.3887 9.91427 30.3595 10.885 30.5213 12.1996V12.1793C30.7639 13.5141 31.3302 13.8377 31.3302 13.8377ZM21.0363 15.2938C21.0363 15.2938 21.4206 15.2533 21.5824 15.0916C21.8453 14.8691 21.825 14.586 21.825 14.586C21.2588 14.586 20.8745 14.3837 20.5914 14.0601C20.288 13.6961 20.2274 13.3119 20.2274 13.3119C20.2274 13.3119 20.5307 13.595 21.1374 13.595H21.2992C21.5824 13.5748 21.7846 13.3928 21.7846 13.3928C21.1577 12.9883 20.733 12.3007 21.1172 11.249C21.4206 10.3996 22.1688 9.7727 22.9171 9.30755C23.1598 9.14576 23.3014 8.98397 23.3014 8.82218C23.3014 8.47838 22.7958 8.45816 22.5935 8.21547C22.3509 7.93234 22.5126 7.48742 22.7149 7.22451C22.7149 7.22451 22.6542 7.20428 22.5329 7.20428C22.3104 7.20428 21.9464 7.26495 21.643 7.56831C21.2385 7.99301 21.4003 8.45816 21.4003 8.45816L21.279 8.51883C21.2183 8.53905 21.1577 8.53905 21.0768 8.53905H21.0363C20.4498 8.53905 20.1869 7.91211 20.1869 7.91211C20.1869 7.91211 19.56 8.68062 20.4903 9.28733C20.6521 9.38845 20.7127 9.48957 20.6925 9.59069L20.6723 9.67158L20.6116 9.69181C19.9442 9.87382 19.6004 10.339 19.1757 10.8648C18.5488 11.6737 17.6589 11.694 17.5376 11.694C17.5376 11.694 17.7398 12.3411 18.3465 12.3411H18.3668C18.6499 12.3411 18.7915 12.2198 18.7915 12.2198C18.7915 12.2198 18.8926 13.6759 17.8005 14.141C17.8005 14.141 18.0027 14.4848 18.4477 14.4848C18.9937 14.4848 19.2162 14.141 19.2162 14.141C19.2162 14.141 19.1757 14.5657 19.378 15.1522C19.6206 15.8601 19.378 16.3656 19.378 16.3656C19.378 16.3656 19.4993 16.4061 19.6611 16.4061C19.7218 16.4061 19.7824 16.4061 19.8229 16.3859C20.288 16.2848 20.3891 15.8601 20.3891 15.8601C20.3891 15.8601 20.3487 17.2555 21.9868 17.2555H22.007C22.007 17.2555 21.8655 17.0533 21.825 16.487C21.7441 15.4556 21.0363 15.2938 21.0363 15.2938ZM20.7734 15.5567C20.1262 14.7882 19.56 13.9995 19.4791 12.8467C19.4184 13.049 19.1353 13.6354 18.6904 13.8579C18.6904 13.8579 19.2566 13.5141 19.4993 12.2198V12.24C19.6611 10.9052 20.6318 9.95471 21.7037 9.36823C21.8048 9.30755 21.8857 9.26711 21.9868 9.22666C21.6632 9.28733 21.1374 9.28733 20.733 8.9233C20.733 8.9233 21.3599 9.38845 22.634 8.96375C22.2902 9.18621 21.6026 9.50979 20.9756 10.0356C19.3982 11.4108 20.5307 12.7658 20.5307 12.7658C19.9644 12.1793 19.9442 11.5524 20.106 11.0266C19.8027 11.5119 19.6206 12.1187 19.6409 12.8669C19.6813 13.8983 20.2678 14.8084 20.8745 15.5567C21.1779 15.9207 21.2385 16.3454 21.2385 16.3454C21.2385 16.3454 21.1172 15.9612 20.7734 15.5567Z" fill="white"/>
<path d="M23.8069 10.1771C23.8271 10.1973 23.8675 10.2377 23.8878 10.2782L23.908 10.2984C23.9282 10.3388 23.9484 10.3591 23.9687 10.3995C23.9687 10.3995 23.9687 10.4197 23.9889 10.4197C24.0091 10.4602 24.0496 10.5006 24.0698 10.5411C24.3125 10.9456 24.6765 11.1882 25.0203 11.1882C25.3641 11.1882 25.7281 10.9456 25.9708 10.5411C25.991 10.5006 26.0315 10.4602 26.0517 10.4197C26.0517 10.4197 26.0517 10.3995 26.0719 10.3995C26.0922 10.3591 26.1124 10.3388 26.1528 10.2984L26.1731 10.2782C26.1933 10.2377 26.2337 10.2175 26.2539 10.1771L26.2742 10.1568C26.3955 10.0355 26.5371 9.93437 26.7191 9.89392L26.5978 9.85348L26.2742 9.65124L25.9304 9.449L25.0203 9.95459L24.1102 9.449L23.7664 9.65124L23.4428 9.85348L23.3619 9.89392C23.5237 9.95459 23.6653 10.0355 23.8069 10.1771C23.7866 10.1771 23.7866 10.1771 23.8069 10.1771ZM24.636 10.1366H25.4045V10.3995C25.3237 10.2984 25.1416 10.3186 25.1416 10.3186V10.7029C25.1416 10.7029 25.1416 10.8849 25.2225 10.9658H24.8585C24.9192 10.8849 24.9394 10.7029 24.9394 10.7029V10.3186C24.9394 10.3186 24.7574 10.2984 24.6765 10.3995V10.1366H24.636ZM24.9394 9.63101V8.07378L23.9484 7.72998L24.2113 9.22654L24.9394 9.63101ZM24.7169 8.45804V8.70072L24.6765 8.6805C24.6765 8.6805 24.5956 8.66027 24.4743 8.55915C24.272 8.39736 24.272 8.2558 24.272 8.2558L24.7169 8.45804ZM25.809 9.24676L26.0719 7.7502L25.081 8.09401V9.65124L25.809 9.24676ZM25.3034 8.45804L25.7484 8.27602C25.7484 8.27602 25.7484 8.41759 25.5461 8.57938C25.4248 8.6805 25.3641 8.70072 25.3439 8.70072L25.3034 8.72094V8.45804ZM23.544 13.2106C23.6451 13.2511 23.7462 13.2511 23.8069 13.2511V13.2308C23.8069 13.2106 23.8271 13.1904 23.8271 13.1702C23.8473 13.0893 23.8473 12.9882 23.8473 12.9275C23.8069 12.9073 23.7462 12.8668 23.726 12.7859C23.6855 12.705 23.6451 12.6646 23.5642 12.6646C23.4631 12.6646 23.3619 12.7252 23.3215 12.7455C23.2811 12.9882 23.4226 13.1702 23.544 13.2106ZM25.7079 12.4017C25.5259 12.6039 25.1619 12.9477 25.1416 12.9679L25.1214 12.9882L23.9889 12.9679C23.9889 13.0893 23.9687 13.1702 23.9484 13.2511V13.2915L25.3034 13.5342C25.445 13.4331 25.8292 13.1499 25.9708 13.0488C25.8697 12.887 25.8495 12.705 25.8697 12.5635C25.809 12.5028 25.7686 12.4421 25.7079 12.4017Z" fill="white"/>
<path d="M25.8695 11.0266C25.6066 11.2895 25.3639 11.3906 25.1414 11.4108H24.8987C24.8583 11.4108 24.8178 11.4108 24.7774 11.3906C24.7572 11.4513 24.737 11.5726 24.7976 11.694C24.8381 11.7951 24.9392 11.876 25.0808 11.9366L25.1212 11.9569V12.0175C25.1212 12.0378 25.1414 12.3613 25.4852 12.4625C25.5459 12.4018 25.6066 12.3411 25.6268 12.3007C25.5459 12.1187 25.5864 11.9569 25.7077 11.8557C25.7077 11.876 25.647 12.3007 26.0111 12.4625L26.0717 12.4827L26.0515 12.5434C26.0515 12.5636 25.9302 12.9883 26.3549 13.1298L26.4358 13.1501L26.3953 13.231C26.3953 13.2512 26.2335 13.6354 26.6178 13.8377H27.4672V13.1703C27.1638 13.1298 27.0425 12.8872 27.002 12.7254C26.8604 12.7051 26.7593 12.6445 26.6784 12.5434C26.4964 12.3209 26.6582 12.0984 26.6582 12.0782C26.6582 12.0782 26.6582 12.3007 26.7998 12.4422C26.8604 12.5029 26.9413 12.5636 27.0829 12.5636H27.1436V12.6242C27.1436 12.6445 27.184 12.9478 27.4672 12.9883V11.6333C27.4672 11.431 27.5278 11.2086 27.6087 11.0063H25.8695V11.0266ZM23.6044 11.6535L23.5842 12.5231L23.6853 12.5434L23.928 11.7142L23.8067 11.4513L23.6044 11.6535ZM26.274 15.6376H26.2942C26.4358 15.678 26.4762 16.2241 26.7391 16.2645H26.7998C26.8807 16.2645 26.9211 16.2241 26.9616 16.1836C26.9616 16.1836 26.82 15.9814 26.7391 15.8398C26.5975 15.6578 26.4964 15.4354 26.2537 15.4354H26.2335C26.1526 15.4354 26.1122 15.4758 26.1122 15.4758C26.0111 15.4151 25.9302 15.3949 25.829 15.3949C25.6672 15.3949 25.5661 15.4556 25.5055 15.4556L24.9594 15.3949C24.8785 15.3949 24.7976 15.2938 24.7774 15.2736V15.2129C24.7572 14.768 24.4134 14.5657 24.292 14.5657C24.292 14.5657 24.3123 14.4848 24.2718 14.4444L24.1505 14.586L23.746 14.3837L24.0291 14.7073L23.7864 14.9702C23.7662 15.0107 23.7662 15.0511 23.7662 15.0511L23.8673 15.1522L23.9887 15.0713H24.1707C24.2314 15.0713 24.2718 15.0511 24.2718 15.0107C24.2516 15.1724 24.11 15.4556 24.2111 15.6983L24.292 15.8601L23.8067 15.7994L23.5842 16.1836C23.5235 16.305 23.5033 16.4465 23.564 16.5274L23.6449 16.6286C23.6449 16.6286 23.7662 16.5072 23.7864 16.4263L23.746 16.3859C23.7055 16.3454 23.7055 16.3252 23.7258 16.2848L23.8673 16.0421L24.4336 16.1836L24.4538 16.123C24.4943 16.0623 24.5549 16.0421 24.6156 16.0421H24.6965C24.7976 16.0623 24.9796 16.0825 25.1414 16.0825C25.3234 16.0825 25.5257 16.0421 25.6268 15.9409C25.829 16.2443 26.2537 16.305 26.2133 16.4465L26.1122 16.9724C26.1931 16.9724 26.2537 16.9724 26.3144 16.9521L26.4155 16.4061C26.4358 16.3454 26.4358 16.2645 26.4358 16.2645C26.3953 16.2241 26.2942 16.1432 26.2335 16.0218C26.1526 15.8803 26.1931 15.7994 26.1324 15.6174C26.1931 15.678 26.2133 15.6376 26.274 15.6376ZM24.1302 14.8691C24.11 14.8691 24.0898 14.8489 24.0898 14.8084C24.0898 14.7882 24.11 14.768 24.1505 14.768C24.1707 14.768 24.1909 14.7882 24.1909 14.8286C24.1707 14.8489 24.1505 14.8691 24.1302 14.8691Z" fill="white"/>
<path d="M23.3418 16.123C23.3418 16.123 23.5238 16.0421 23.544 15.9815L23.5238 15.9208C23.5036 15.8803 23.5036 15.8399 23.544 15.8197L23.7463 15.6781L24.0901 15.7388C24.0901 15.7388 24.0294 15.6579 24.0294 15.5568L23.7058 15.4961L23.4025 15.6781C23.2609 15.7792 23.2609 15.941 23.3013 16.0421L23.3418 16.123ZM25.7686 17.0129H25.9709C25.9709 17.0129 26.1529 16.5073 26.1529 16.4871C26.0518 16.4466 25.8495 16.3253 25.7686 16.2848C25.8293 16.3657 25.9507 16.4466 25.9304 16.5275L25.7686 17.0129Z" fill="white"/>
<path d="M27.427 13.9793H22.5732V15.7995C22.5732 16.5477 23.1193 17.0129 23.908 17.0129C24.5754 17.0129 24.7574 17.0331 25.0001 17.2758C25.1619 17.114 25.3035 17.0331 25.6068 17.0129V16.9927L25.7686 16.5275C25.7686 16.5073 25.5057 16.2242 25.5057 16.2242C25.4046 16.2646 25.3237 16.2646 25.1821 16.2646C25.0405 16.2646 24.8788 16.2444 24.6967 16.2242H24.6361C24.6158 16.2242 24.6158 16.2242 24.6158 16.2444L24.5956 16.2848L24.535 16.3859L24.4338 16.3657L23.9687 16.2646L23.908 16.3455V16.3657L23.9687 16.4264L23.9485 16.5073C23.908 16.6084 23.8069 16.7298 23.7664 16.7702L23.6451 16.8915L23.544 16.75L23.4631 16.6489C23.3822 16.5477 23.362 16.4062 23.4024 16.2646L23.2811 16.3253L23.2204 16.2039L23.18 16.123C23.0991 15.9612 23.1395 15.7388 23.3215 15.5972L23.7058 15.395L24.0698 15.4557C24.0698 15.4152 24.09 15.2939 24.1103 15.2736H24.09L23.8878 15.3545L23.6856 15.213C23.6856 15.213 23.6047 15.1321 23.6856 15.0714L23.8676 14.7883L23.3822 14.1816L24.1305 14.4849L24.1709 14.4242L24.272 14.3029L24.3934 14.404C24.4338 14.4445 24.4541 14.4647 24.4541 14.5051C24.6563 14.586 25.0203 14.8287 25.0608 15.213H24.9192C24.9394 15.2534 24.9597 15.2534 24.9799 15.2534L25.5057 15.3141C25.5259 15.3141 25.5259 15.3141 25.5461 15.2939C25.6068 15.2736 25.7079 15.2332 25.8293 15.2332C25.9304 15.2332 26.0113 15.2534 26.1124 15.2939C26.1529 15.2736 26.1933 15.2736 26.2337 15.2736H26.254C26.5371 15.2736 26.6787 15.4961 26.8 15.6579C26.8202 15.6781 26.8405 15.7186 26.8607 15.7388C26.9618 15.8804 27.0831 16.0826 27.1034 16.1028L27.164 16.2039L27.0831 16.2848C27.0225 16.3455 26.9416 16.4264 26.8 16.4264H26.6989C26.6787 16.4264 26.6382 16.4062 26.618 16.4062C26.618 16.4264 26.618 16.4668 26.5978 16.4871L26.4967 16.9724C27.0629 16.8309 27.4067 16.4062 27.4067 15.7995L27.427 13.9793ZM22.5732 13.8378H26.3551C26.1731 13.6355 26.1731 13.3928 26.2135 13.231C26.1529 13.2108 26.1124 13.1704 26.072 13.1299C25.9304 13.231 25.4652 13.5748 25.3641 13.6557L25.3439 13.676L23.8676 13.4131H23.7058C23.6856 13.4737 23.6249 13.5344 23.5642 13.5344H23.544C23.5035 13.5344 23.4631 13.5142 23.4429 13.4737C23.4226 13.4333 23.4024 13.4131 23.4226 13.3726V13.3322C23.2609 13.231 23.1193 12.9884 23.2002 12.7254V12.7052L23.2204 12.685C23.2204 12.685 23.2406 12.6648 23.2811 12.6446L23.18 12.6243C23.1395 12.6243 23.1193 12.5839 23.1193 12.5434C23.1193 12.503 23.1597 12.4828 23.2002 12.4828L23.4631 12.5232L23.4833 11.6131L23.8676 11.2087L24.1103 11.7143L23.8676 12.5839L24.09 12.6243C24.1305 12.6243 24.1507 12.6648 24.1507 12.7052C24.1507 12.7457 24.1103 12.7659 24.0698 12.7659H24.0496L23.8676 12.7457V12.7659C23.8878 12.8063 23.9282 12.8266 23.9485 12.8468L25.081 12.867L25.3641 12.5839C25.081 12.4828 24.9799 12.2401 24.9597 12.0783C24.7979 12.0176 24.6967 11.9165 24.6361 11.7749C24.5552 11.6131 24.5956 11.4514 24.6158 11.3705C24.4743 11.3098 24.3125 11.2087 24.1507 11.0469H22.4519C22.5328 11.2491 22.5935 11.4514 22.5935 11.6738V13.8378H22.5732Z" fill="#FCE527"/>
<path d="M24.1304 14.7681C24.1102 14.7681 24.0698 14.7883 24.0698 14.8085C24.0698 14.8287 24.09 14.8692 24.1102 14.8692C24.1304 14.8692 24.1709 14.849 24.1709 14.8287C24.1911 14.7883 24.1709 14.7681 24.1304 14.7681ZM27.4269 18.0848L27.1438 17.9634L27.2247 17.6803L27.3056 17.3567C27.3056 17.3567 26.8202 17.6196 26.1124 17.8219C25.9101 17.8825 25.7686 17.9028 25.7686 17.9028V18.1454C25.7686 18.1454 25.4045 18.2061 25.0203 18.2061C24.636 18.2061 24.272 18.1454 24.272 18.1454V17.923C24.272 17.923 24.1304 17.9028 23.9282 17.8421C23.2204 17.6398 22.735 17.3769 22.735 17.3769L22.8159 17.7005L22.8968 17.9836L22.6137 18.0848L22.3103 18.2061C22.6743 18.3881 23.1597 18.6308 23.6046 18.7521L23.5035 19.0353C23.5035 19.0353 24.0698 19.2982 25.0405 19.2982C25.991 19.2982 26.5775 19.0353 26.5775 19.0353L26.4764 18.7521C26.9213 18.6308 27.4269 18.3679 27.7707 18.2061L27.4269 18.0848ZM22.6137 18.2061L23.0788 18.0443L22.9372 17.5994C23.1395 17.7207 23.5844 17.8825 23.8473 17.9634L23.6248 18.5701C23.2204 18.4892 22.8968 18.3477 22.6137 18.2061ZM25.0001 19.1364C24.4742 19.1364 23.8473 19.0151 23.6855 18.9544L23.9484 18.2061C24.1709 18.2668 24.636 18.3477 24.9798 18.3477H25.0001C25.3439 18.3477 25.809 18.287 26.0315 18.2061L26.3348 18.9544C26.1528 19.0151 25.5461 19.1364 25.0001 19.1364ZM26.3955 18.5904L26.173 17.9836C26.436 17.9027 26.8809 17.7207 27.1033 17.6196L26.9415 18.0645L27.4067 18.2263C27.1236 18.3477 26.8 18.4892 26.3955 18.5904Z" fill="black"/>
<path d="M25 6.55713C25.5663 6.55713 26.0314 6.73915 26.2741 6.94138C26.2741 6.94138 26.355 6.49646 26.5977 6.09198L26.1326 6.15266L25.8899 5.64706L25.4247 5.88975L24.9798 5.44482L24.5349 5.88975L24.1102 5.64706L23.8675 6.15266L23.4023 6.09198C23.6653 6.49646 23.7259 6.94138 23.7259 6.94138C23.9888 6.73915 24.4338 6.55713 25 6.55713ZM23.8473 6.33467L23.9686 6.35489L24.0293 6.23355L24.1911 5.88975L24.4944 6.05154L24.6158 6.11221L24.6967 6.01109L25.0202 5.68751L25.3236 6.01109L25.4247 6.09198L25.5461 6.03131L25.8494 5.86952L26.0112 6.21333L26.0719 6.33467L26.1932 6.31445L26.3146 6.29422C26.2539 6.41556 26.2134 6.53691 26.1932 6.63803C25.8696 6.45601 25.4652 6.35489 25.0202 6.35489C24.5955 6.35489 24.1708 6.45601 23.8675 6.63803C23.8473 6.53691 23.8068 6.41556 23.7461 6.29422L23.8473 6.33467ZM31.6739 12.5231C32.4019 12.5231 32.6648 11.7749 32.6648 11.7344L32.7457 11.4715H32.4626C32.3615 11.4715 31.5525 11.4513 30.9863 10.7232L30.9458 10.6626C30.5616 10.1772 30.2178 9.73226 29.5706 9.53002C29.5908 9.5098 29.611 9.48958 29.6515 9.46935C29.9953 9.24689 30.1773 8.98398 30.238 8.6604C30.3189 8.19526 30.0155 7.811 29.9953 7.79078L29.7931 7.52787L29.6717 7.83123C29.6717 7.85145 29.4492 8.33682 29.0043 8.33682H28.883C28.9032 8.11436 28.8628 7.79078 28.5594 7.48742C28.1954 7.10317 27.7505 7.06273 27.528 7.06273C27.4066 7.06273 27.3258 7.08295 27.3055 7.08295L27.0022 7.14362L27.1842 7.38631C27.3258 7.58854 27.4673 7.93235 27.3055 8.13458C27.2449 8.19526 27.1437 8.2357 27.0426 8.29637C26.8404 8.39749 26.5573 8.51884 26.5573 8.86264C26.5573 9.0851 26.719 9.30756 27.0426 9.5098C27.9527 10.0761 28.519 10.6828 28.7616 11.3502C29.1459 12.3614 28.6403 12.9478 28.1752 13.2512L27.9527 13.3928L28.1347 13.5748C28.1549 13.595 28.3976 13.7972 28.7212 13.8377H28.9032C29.1257 13.8377 29.3077 13.7972 29.4492 13.7568C29.4088 13.8377 29.3481 13.8984 29.2875 13.9793C29.0043 14.3028 28.6807 14.4444 28.1954 14.4444H28.0134L27.9931 14.6264C27.9931 14.6669 27.9729 14.9904 28.2965 15.2736C28.3369 15.314 28.3976 15.3545 28.4583 15.3747C28.2358 15.5769 28.0336 15.9005 27.9931 16.487C27.9527 16.9724 27.8516 17.1544 27.8313 17.1544L27.6291 17.4577H27.9931C28.5796 17.4577 29.0448 17.2959 29.3481 16.9724C29.5301 16.7904 29.6313 16.5679 29.7122 16.3657C29.8133 16.4466 29.9548 16.5274 30.1166 16.5679C30.1773 16.5881 30.2582 16.5881 30.3391 16.5881C30.5009 16.5881 30.6425 16.5477 30.6627 16.5477L30.8851 16.487L30.784 16.2645C30.784 16.2443 30.5818 15.8196 30.784 15.2129C30.8649 14.95 30.9256 14.7073 30.9458 14.5253C31.0874 14.6062 31.2896 14.6669 31.5323 14.6669C32.0986 14.6669 32.3412 14.2422 32.3615 14.2219L32.4828 14.0197L32.2806 13.9388C31.6132 13.6557 31.4514 12.9074 31.4312 12.5029C31.4918 12.5231 31.5525 12.5231 31.6334 12.5231H31.6739ZM32.2199 14.1208C32.2199 14.1208 32.0177 14.4646 31.5727 14.4646C31.0267 14.4646 30.8042 14.1208 30.8042 14.1208C30.8042 14.1208 30.8447 14.5455 30.6425 15.132C30.3998 15.8398 30.6425 16.3454 30.6425 16.3454C30.6425 16.3454 30.5211 16.3859 30.3593 16.3859C30.2986 16.3859 30.238 16.3859 30.1975 16.3657C29.7324 16.2645 29.6313 15.8398 29.6313 15.8398C29.6313 15.8398 29.6717 17.2353 28.0336 17.2353H28.0134C28.0134 17.2353 28.1549 17.033 28.1954 16.4668C28.2763 15.4354 28.9841 15.2938 28.9841 15.2938C28.9841 15.2938 28.5999 15.2533 28.4381 15.0916C28.1752 14.8691 28.1954 14.586 28.1954 14.586C28.7616 14.586 29.1459 14.3837 29.429 14.0601C29.7324 13.6961 29.7931 13.3119 29.7931 13.3119C29.7931 13.3119 29.4897 13.595 28.883 13.595H28.7212C28.4381 13.5748 28.2358 13.3928 28.2358 13.3928C28.8628 12.9883 29.2875 12.3007 28.9032 11.249C28.5999 10.3996 27.8516 9.77271 27.1033 9.30756C26.8808 9.166 26.7393 8.98398 26.7393 8.84242C26.7393 8.49861 27.2449 8.47839 27.4471 8.2357C27.6898 7.95257 27.528 7.50765 27.3258 7.24474C27.3258 7.24474 27.3864 7.22452 27.5078 7.22452C27.7302 7.22452 28.0943 7.28519 28.3976 7.58854C28.8021 8.01324 28.6403 8.47839 28.6403 8.47839L28.7414 8.49861C28.8021 8.51884 28.8628 8.51884 28.9437 8.51884H28.9841C29.5706 8.51884 29.8335 7.8919 29.8335 7.8919C29.8335 7.8919 30.4604 8.6604 29.5301 9.26712C29.3684 9.36823 29.3077 9.46935 29.3279 9.57047L29.3481 9.63114L29.4088 9.65137C30.0762 9.83338 30.42 10.2985 30.8447 10.8243C31.4716 11.6333 32.3615 11.6535 32.4828 11.6535H32.503C32.503 11.6535 32.3008 12.3007 31.6941 12.3007H31.6739C31.3907 12.3007 31.2492 12.1793 31.2492 12.1793C31.2492 12.1793 31.1278 13.6759 32.2199 14.1208ZM30.3998 9.61092C30.6829 9.75249 30.8245 9.95472 30.966 10.1367C31.1076 10.2985 31.2289 10.4603 31.4312 10.5412C31.5121 10.5614 31.5727 10.5817 31.6536 10.5817C31.957 10.5817 32.2604 10.3996 32.3817 10.1367L32.503 9.87383L32.2199 9.8536C32.1997 9.8536 31.8357 9.81316 31.4312 9.40868C31.2694 9.24689 31.0672 9.14577 30.8447 9.14577C30.5818 9.14577 30.3795 9.28734 30.3593 9.28734L30.1166 9.44913L30.3998 9.61092ZM30.8649 9.30756C31.0065 9.30756 31.1683 9.34801 31.3098 9.5098C31.775 9.99517 32.2199 10.0154 32.2199 10.0154C32.139 10.1974 31.9165 10.339 31.6739 10.339C31.6132 10.339 31.5525 10.339 31.5121 10.3188C31.1885 10.2176 31.0671 9.71204 30.5009 9.40868C30.4807 9.42891 30.6425 9.30756 30.8649 9.30756ZM30.5211 12.1996C30.3593 10.885 29.3886 9.91428 28.3167 9.32779C28.2156 9.26712 28.1347 9.22667 28.0336 9.18622C28.3572 9.24689 28.883 9.24689 29.2875 8.88286C29.2875 8.88286 28.6605 9.34801 27.3864 8.92331C27.7302 9.14577 28.4178 9.46935 29.0448 9.99517C30.6222 11.3704 29.4897 12.7254 29.4897 12.7254C30.056 12.1389 30.0762 11.512 29.9144 10.9861C30.2178 11.4715 30.3998 12.0782 30.3795 12.8265C30.3391 13.8781 29.7526 14.8084 29.1459 15.5365C28.8425 15.9005 28.7819 16.3252 28.7819 16.3252C28.7819 16.3252 28.9032 15.941 29.247 15.5365C29.8942 14.768 30.4604 13.9793 30.5413 12.8265C30.602 13.0287 30.8851 13.6152 31.3301 13.8377C31.3301 13.8377 30.7638 13.5141 30.5211 12.1996Z" fill="black"/>
<path d="M22.1688 17.1341C22.1688 17.1341 22.0474 16.9521 22.0272 16.4668C21.9868 15.8803 21.7643 15.5567 21.5418 15.3544C21.6025 15.3342 21.6632 15.2938 21.7036 15.2533C22.0272 14.9702 22.007 14.6264 22.007 14.6062L21.9868 14.4242H21.8047C21.3194 14.4242 20.9756 14.2624 20.7127 13.959C20.652 13.8781 20.5913 13.8174 20.5509 13.7365C20.6924 13.777 20.8947 13.8174 21.0969 13.8174H21.2789C21.6227 13.7972 21.8452 13.595 21.8654 13.5545L22.0474 13.3725L21.825 13.231C21.3396 12.9276 20.8542 12.3411 21.2385 11.3299C21.4812 10.6625 22.0474 10.0558 22.9575 9.48956C23.2609 9.28732 23.4429 9.06486 23.4429 8.8424C23.4429 8.49859 23.1597 8.37725 22.9575 8.27613C22.8564 8.23568 22.7553 8.17501 22.6946 8.11434C22.5328 7.93233 22.6744 7.5683 22.8159 7.36606L22.9979 7.12338L22.6946 7.0627C22.6946 7.0627 22.6137 7.04248 22.4721 7.04248C22.2497 7.04248 21.8047 7.10315 21.4407 7.46718C21.1374 7.77054 21.0969 8.11434 21.1171 8.31658H20.9958C20.5509 8.31658 20.3284 7.83121 20.3284 7.81098L20.2071 7.50763L20.0048 7.77054C19.9846 7.79076 19.6812 8.15479 19.7621 8.64016C19.8026 8.96374 20.0048 9.22665 20.3486 9.44911C20.3891 9.46933 20.4093 9.48956 20.4295 9.50978C19.7824 9.71202 19.4386 10.1772 19.0543 10.6423L18.9936 10.703C18.4476 11.4715 17.6386 11.4917 17.5375 11.4917H17.2544L17.3353 11.7546C17.3353 11.7951 17.5982 12.5433 18.3263 12.5433H18.3667C18.4476 12.5433 18.5083 12.5231 18.5689 12.5231C18.5285 12.9276 18.3869 13.6759 17.7195 13.959L17.5173 14.0399L17.6386 14.2421C17.6386 14.2421 17.8813 14.6668 18.4476 14.6668C18.6903 14.6668 18.8925 14.6062 19.0341 14.5253C19.0543 14.7073 19.0948 14.95 19.1959 15.2129C19.3981 15.8196 19.2161 16.2645 19.1959 16.2645L19.0948 16.487L19.3172 16.5477C19.3374 16.5477 19.479 16.5881 19.6408 16.5881C19.7217 16.5881 19.7824 16.5881 19.8633 16.5679C20.0453 16.5274 20.1666 16.4465 20.2677 16.3656C20.3284 16.5476 20.4295 16.7701 20.6318 16.9723C20.9553 17.2959 21.4003 17.4577 21.9868 17.4577H22.3508L22.1688 17.1341ZM21.9868 17.2353C20.3486 17.2353 20.3891 15.8398 20.3891 15.8398C20.3891 15.8398 20.2677 16.2645 19.8228 16.3656C19.7621 16.3859 19.7015 16.3859 19.661 16.3859C19.5195 16.3859 19.3779 16.3454 19.3779 16.3454C19.3779 16.3454 19.6206 15.8398 19.3779 15.132C19.1757 14.5455 19.2161 14.1208 19.2161 14.1208C19.2161 14.1208 18.9936 14.4444 18.4476 14.4646C18.0027 14.4646 17.8004 14.1208 17.8004 14.1208C18.8925 13.6759 18.7914 12.1995 18.7914 12.1995C18.7914 12.1995 18.6498 12.3007 18.3667 12.3209H18.3465C17.7398 12.3209 17.5375 11.6737 17.5375 11.6737H17.5578C17.6589 11.6737 18.5689 11.6535 19.1959 10.8445C19.6206 10.3187 19.9442 9.85358 20.6318 9.67157L20.6924 9.65135L20.7127 9.59067C20.7329 9.48956 20.652 9.38844 20.5104 9.28732C19.5801 8.68061 20.2071 7.9121 20.2071 7.9121C20.2071 7.9121 20.47 8.53904 21.0565 8.53904H21.0969C21.1576 8.53904 21.2385 8.53904 21.2991 8.51882L21.4003 8.49859C21.4003 8.49859 21.2385 8.03344 21.643 7.60875C21.9463 7.28517 22.3306 7.24472 22.5328 7.24472C22.6339 7.24472 22.7148 7.26494 22.7148 7.26494C22.5126 7.52785 22.371 7.97277 22.5935 8.25591C22.7957 8.49859 23.3013 8.49859 23.3013 8.86262C23.3013 9.00419 23.1597 9.1862 22.917 9.34799C22.1688 9.81314 21.4205 10.4401 21.1171 11.2895C20.7329 12.3411 21.1576 13.0287 21.7845 13.4332C21.7845 13.4332 21.5823 13.6152 21.2991 13.6354H21.1374C20.5306 13.6354 20.2273 13.3523 20.2273 13.3523C20.2273 13.3523 20.288 13.7365 20.5913 14.1006C20.8744 14.4242 21.2587 14.6264 21.825 14.6264C21.825 14.6264 21.8452 14.8893 21.5823 15.132C21.4205 15.2736 21.0362 15.3342 21.0362 15.3342C21.0362 15.3342 21.7441 15.4758 21.825 16.5072C21.8654 17.0532 22.007 17.2353 21.9868 17.2353ZM18.3465 10.5614C18.4274 10.5614 18.5083 10.5412 18.5689 10.521C18.7712 10.4603 18.9127 10.2985 19.0341 10.1165C19.1757 9.93448 19.3374 9.75247 19.6004 9.59067L19.8835 9.44911L19.6206 9.26709C19.6004 9.24687 19.3981 9.12553 19.1352 9.12553C18.9127 9.12553 18.7105 9.20642 18.5487 9.38844C18.1442 9.81314 17.7802 9.83336 17.76 9.83336L17.4971 9.85358L17.6184 10.1165C17.7398 10.3592 18.0431 10.5614 18.3465 10.5614ZM18.7105 9.53C18.8521 9.36821 19.0139 9.32777 19.1554 9.32777C19.3577 9.32777 19.5195 9.44911 19.5195 9.44911C18.9532 9.75247 18.8318 10.2378 18.5083 10.3592C18.4476 10.3794 18.4071 10.3794 18.3465 10.3794C18.1038 10.3794 17.8813 10.2176 17.8004 10.0558C17.8004 10.0356 18.2454 9.99515 18.7105 9.53ZM19.6408 12.8265C19.6004 12.0782 19.8026 11.4917 20.1059 10.9861C19.9442 11.4917 19.9644 12.1389 20.5306 12.7254C20.5306 12.7254 19.4183 11.3906 20.9756 9.99515C21.6025 9.46933 22.2901 9.14575 22.6339 8.92329C21.3598 9.34799 20.7329 8.88284 20.7329 8.88284C21.1374 9.22665 21.6632 9.22665 21.9868 9.1862C21.9059 9.22665 21.8047 9.26709 21.7036 9.32777C20.6318 9.91425 19.661 10.885 19.4992 12.1995V12.1793C19.2565 13.4939 18.6903 13.8174 18.6903 13.8174C19.1352 13.595 19.4183 13.0287 19.479 12.8063C19.5599 13.959 20.1059 14.7477 20.7733 15.5162C21.1171 15.9207 21.2385 16.305 21.2385 16.305C21.2385 16.305 21.1778 15.86 20.8744 15.5162C20.2677 14.8084 19.6812 13.8983 19.6408 12.8265Z" fill="black"/>
<path d="M24.636 10.137V10.3999C24.7371 10.2987 24.8989 10.319 24.8989 10.319V10.7032C24.8989 10.7032 24.8989 10.8852 24.818 10.9661H25.182C25.1214 10.8852 25.1011 10.7032 25.1011 10.7032V10.319C25.1011 10.319 25.2832 10.2987 25.3641 10.3999V10.137H24.636ZM24.4742 8.57972C24.5956 8.68084 24.6764 8.70107 24.6764 8.70107L24.7169 8.72129V8.4786L24.272 8.29659C24.272 8.27637 24.272 8.41793 24.4742 8.57972ZM25.5461 8.57972C25.7483 8.41793 25.7483 8.27637 25.7483 8.27637L25.3034 8.45838V8.70107L25.3438 8.68084C25.3438 8.68084 25.4247 8.66062 25.5461 8.57972Z" fill="black"/>
<path d="M26.355 7.56867C26.355 7.18442 25.728 6.86084 25.0202 6.86084C24.3124 6.86084 23.6854 7.20464 23.6854 7.56867L23.7057 7.66979L23.9888 9.28769L23.7057 9.44948L22.9574 9.85396C22.9574 9.85396 22.7956 9.93485 22.7147 9.99552C22.4316 10.1978 22.3709 10.4607 22.5327 10.582C22.5731 10.3596 22.7552 10.1169 23.099 10.1169C23.3416 10.1169 23.5237 10.2382 23.6854 10.4404C23.7259 10.4809 23.7663 10.5416 23.7866 10.6022L23.9079 10.7843H22.0271C22.1687 11.0674 22.29 11.3505 22.29 11.6741V15.82C22.29 16.8312 23.0585 17.2963 23.9079 17.2963C24.5551 17.2963 24.636 17.2761 25 17.6199C25.364 17.2559 25.4449 17.2963 26.0921 17.2963C26.9212 17.2963 27.71 16.8109 27.71 15.82V11.6539C27.71 11.3303 27.8313 11.0472 27.9729 10.764H26.0921L26.2134 10.582C26.2539 10.5213 26.2943 10.4809 26.3145 10.4202C26.4561 10.2382 26.6583 10.0966 26.901 10.0966C27.2448 10.0966 27.4268 10.3393 27.4673 10.5618C27.6291 10.4404 27.5684 10.1573 27.2853 9.9753C27.2044 9.91463 27.0426 9.83373 27.0426 9.83373L26.3348 9.42926L26.0516 9.26747L26.3348 7.64957L26.355 7.56867ZM23.9484 7.75069L24.9393 8.09449V9.65172L24.2113 9.24724L23.9484 7.75069ZM24.1506 11.0269C24.3124 11.1887 24.4742 11.2898 24.6157 11.3505C24.5955 11.4314 24.5753 11.5932 24.636 11.755C24.6966 11.8763 24.7978 11.9775 24.9595 12.0583C24.9798 12.2201 25.0809 12.4628 25.364 12.5639L25.0809 12.8471L23.9484 12.8269C23.9281 12.8066 23.8877 12.7864 23.8675 12.746V12.7257L24.0495 12.746H24.0697C24.1101 12.746 24.1304 12.7257 24.1506 12.6853C24.1506 12.6448 24.1304 12.6044 24.0899 12.6044L23.8675 12.5639L24.1101 11.6943L23.8675 11.1887L23.4832 11.5932L23.463 12.5033L23.2001 12.4628C23.1596 12.4628 23.1192 12.483 23.1192 12.5235C23.1192 12.5639 23.1394 12.6044 23.1799 12.6044L23.281 12.6246C23.2405 12.6448 23.2203 12.6651 23.2203 12.6651L23.1799 12.6853V12.7055C23.1192 12.9684 23.2607 13.1909 23.4023 13.3122V13.3527C23.4023 13.3931 23.4023 13.4336 23.4225 13.4538C23.4428 13.4942 23.4832 13.5145 23.5237 13.5145H23.5439C23.6046 13.5145 23.6652 13.474 23.6854 13.3931H23.8472L25.3236 13.656L25.3438 13.6358C25.4651 13.5549 25.9101 13.2313 26.0516 13.11C26.0921 13.1504 26.1325 13.1707 26.1932 13.2111C26.1527 13.3729 26.1325 13.6156 26.3348 13.8178H22.5731V11.6539C22.5731 11.4516 22.5125 11.2292 22.4316 11.0269H24.1506ZM25.9707 13.0291C25.8292 13.1302 25.4449 13.4133 25.3033 13.5145L23.9484 13.2718V13.2313C23.9686 13.1707 23.9888 13.0695 23.9888 12.9482L25.1213 12.9684L25.1416 12.9482C25.1618 12.928 25.5258 12.5842 25.7078 12.3819C25.7483 12.4426 25.8089 12.483 25.8696 12.5437C25.8696 12.6853 25.8696 12.8673 25.9707 13.0291ZM23.7259 12.7864C23.7663 12.8471 23.8068 12.8875 23.8472 12.928C23.8472 12.9886 23.8472 13.0898 23.827 13.1707C23.827 13.1909 23.827 13.2111 23.8068 13.2313V13.2515C23.7461 13.2515 23.6248 13.2515 23.5439 13.2111C23.4428 13.1707 23.281 12.9684 23.3214 12.7662C23.3619 12.746 23.4832 12.6853 23.5641 12.6853C23.645 12.6853 23.6854 12.7055 23.7259 12.7864ZM23.5843 12.5235L23.6046 11.6539L23.8068 11.4516L23.9281 11.7145L23.6854 12.5437L23.5843 12.5235ZM25.9707 17.0132H25.7685L25.9303 16.5278C25.9505 16.4671 25.8292 16.366 25.7685 16.2851C25.8494 16.3256 26.0516 16.4469 26.1527 16.4874C26.1325 16.5076 25.9707 17.0132 25.9707 17.0132ZM26.4763 16.4469L26.3752 16.9929C26.3145 16.9929 26.2336 17.0132 26.173 17.0132L26.2741 16.4874C26.3145 16.3256 25.8898 16.2851 25.6876 15.9818C25.5865 16.1031 25.4045 16.1233 25.2022 16.1233C25.0202 16.1233 24.8584 16.1031 24.7573 16.0829H24.6764C24.6157 16.0829 24.5551 16.1031 24.5146 16.1638L24.4742 16.2244L23.9079 16.0627L23.7663 16.3053C23.7461 16.3458 23.7461 16.366 23.7866 16.4065L23.827 16.4469C23.8068 16.5278 23.6854 16.6491 23.6854 16.6491L23.6046 16.548C23.5439 16.4671 23.5439 16.3256 23.6248 16.2042L23.8472 15.82L24.3326 15.8806L24.2517 15.7188C24.1506 15.4964 24.3124 15.2133 24.3124 15.0312C24.3124 15.0717 24.2517 15.0919 24.2113 15.0919H24.0293L23.9079 15.1728L23.8068 15.0717C23.7866 15.0515 23.7866 15.011 23.827 14.9908L24.0697 14.7279L23.7866 14.4043L24.191 14.6065L24.3124 14.465C24.3528 14.5054 24.3326 14.5863 24.3326 14.5863C24.454 14.5863 24.7978 14.7886 24.818 15.2335V15.2942C24.8382 15.3346 24.9191 15.4155 25 15.4155L25.546 15.4762C25.6067 15.4762 25.728 15.4155 25.8696 15.4155C25.9505 15.4155 26.0516 15.4357 26.1527 15.4964C26.1527 15.4964 26.1932 15.4559 26.2741 15.4559H26.2943C26.537 15.4559 26.6381 15.6784 26.7797 15.8604C26.8808 16.002 27.0021 16.2042 27.0021 16.2042C26.9617 16.2649 26.901 16.2851 26.8404 16.2851H26.7797C26.5168 16.2447 26.4763 15.6986 26.3348 15.6582H26.3145C26.2741 15.6582 26.2539 15.6986 26.2539 15.6986C26.3145 15.8806 26.2741 15.9615 26.355 16.1031C26.4157 16.2042 26.5168 16.2851 26.5572 16.3458C26.4966 16.3053 26.4763 16.3862 26.4763 16.4469ZM23.5237 15.9413L23.5439 16.002C23.5237 16.0627 23.3416 16.1435 23.3416 16.1435L23.3012 16.0424C23.2607 15.9413 23.2607 15.7795 23.4023 15.6784L23.7057 15.4964L24.0293 15.5571C24.0293 15.6582 24.0899 15.7391 24.0899 15.7391L23.7461 15.6784L23.5439 15.82C23.5237 15.8402 23.5237 15.9009 23.5237 15.9413ZM26.5168 16.9727L26.6179 16.4874C26.6179 16.4671 26.6381 16.4267 26.6381 16.4065C26.6583 16.4267 26.6988 16.4267 26.719 16.4267H26.8201C26.9617 16.4267 27.0426 16.3458 27.1033 16.2851L27.1842 16.2042L27.1235 16.1031C27.1235 16.1031 26.9819 15.8806 26.8808 15.7391C26.8606 15.7188 26.8404 15.6784 26.8201 15.6582C26.6988 15.4964 26.5572 15.2739 26.2741 15.2739H26.2539C26.2134 15.2739 26.173 15.2942 26.1325 15.2942C26.0516 15.2537 25.9505 15.2335 25.8494 15.2335C25.728 15.2335 25.6269 15.2739 25.5663 15.2942C25.546 15.3144 25.5258 15.3144 25.5056 15.3144L24.9798 15.2537C24.9798 15.2537 24.9595 15.2335 24.9191 15.2133L25.0404 15.1728C25 14.7886 24.636 14.5459 24.4337 14.465C24.4337 14.4245 24.4135 14.3841 24.3731 14.3639L24.2517 14.2627L24.1506 14.3841L24.1101 14.4245L23.3619 14.1212L23.8472 14.7279L23.6652 15.011C23.6046 15.0919 23.6652 15.1526 23.6652 15.1526L23.8675 15.2942L24.0697 15.2133H24.0899C24.0899 15.2537 24.0697 15.375 24.0495 15.3953L23.7057 15.3548L23.3214 15.5571C23.1192 15.6986 23.099 15.9413 23.1799 16.0829L23.2203 16.1638L23.281 16.2851L23.4023 16.2244C23.3619 16.366 23.3821 16.5278 23.463 16.6087L23.5439 16.7098L23.645 16.8514L23.7663 16.73C23.8068 16.6896 23.9079 16.5682 23.9484 16.4671L23.9686 16.3862L23.9079 16.3256V16.3053L23.9686 16.2042L24.4337 16.3053L24.5348 16.3256L24.5955 16.2244L24.6157 16.184C24.6157 16.1638 24.6157 16.1638 24.636 16.1638H24.6966C24.8787 16.2042 25.0404 16.2042 25.182 16.2042C25.3236 16.2042 25.4045 16.2042 25.5056 16.1638C25.5056 16.1638 25.7483 16.4469 25.7685 16.4671L25.6067 16.9323V16.9525C25.3236 16.9727 25.182 17.0334 25 17.2154C24.7573 16.9727 24.5753 16.9525 23.9079 16.9525C23.1192 16.9525 22.5731 16.4874 22.5731 15.7391V13.9189H27.4268V15.7391C27.4268 16.4065 27.083 16.8312 26.5168 16.9727ZM27.5684 11.0269C27.4875 11.2292 27.4268 11.4314 27.4268 11.6539V13.0089C27.1437 12.9684 27.1033 12.6448 27.1033 12.6448V12.5842H27.0426C26.9213 12.5639 26.8404 12.5235 26.7595 12.4628C26.6179 12.3213 26.6179 12.0988 26.6179 12.0988C26.6179 12.119 26.4561 12.3213 26.6381 12.5639C26.719 12.6651 26.8201 12.7257 26.9617 12.746C27.0021 12.9077 27.1235 13.1504 27.4268 13.1909V13.8583H26.5774C26.1932 13.6358 26.355 13.2718 26.355 13.2515L26.3954 13.1707L26.3348 13.11C25.9101 12.9482 26.0314 12.5437 26.0314 12.5235L26.0516 12.4628L25.991 12.4426C25.6472 12.2808 25.6876 11.8561 25.6876 11.8359C25.5865 11.9168 25.546 12.0988 25.6067 12.2808C25.5663 12.3213 25.5056 12.3819 25.4651 12.4426C25.1213 12.3415 25.1213 11.9977 25.1213 11.9977V11.937L25.0809 11.9168C24.9393 11.8561 24.8382 11.7954 24.7978 11.6741C24.7371 11.5528 24.7573 11.4314 24.7775 11.3707C24.818 11.3707 24.8584 11.391 24.8989 11.391H25.1416C25.364 11.3707 25.6067 11.2696 25.8696 11.0067H27.5684V11.0269ZM26.2539 9.65172L26.5774 9.85396L26.6583 9.89441C26.4763 9.95508 26.3348 10.036 26.2134 10.1573L26.1932 10.1775C26.173 10.1978 26.1325 10.2382 26.1123 10.2787C26.1123 10.2787 26.1123 10.2989 26.0921 10.2989C26.0719 10.3393 26.0516 10.3596 26.0112 10.4C26.0112 10.4 26.0112 10.4202 25.991 10.4202C25.9707 10.4607 25.9303 10.5011 25.9101 10.5416C25.6674 10.946 25.3033 11.1887 24.9595 11.1887C24.6157 11.1887 24.2517 10.946 24.009 10.5416C23.9888 10.5011 23.9484 10.4607 23.9281 10.4202L23.9079 10.4C23.8877 10.3596 23.8675 10.3393 23.8472 10.2989L23.827 10.2787C23.8068 10.2382 23.7663 10.218 23.7461 10.1775L23.7259 10.1573C23.6046 10.036 23.463 9.93485 23.281 9.89441L23.3619 9.85396L23.6854 9.65172L24.0293 9.44948L24.9393 9.95508L25.8494 9.44948L26.2539 9.65172ZM25.8089 9.24724L25.0809 9.6315V8.07427L26.0719 7.73046L25.8089 9.24724ZM25 7.91248L23.9281 7.48778C24.0293 7.26532 24.4337 7.0833 25 7.0833C25.5663 7.0833 25.991 7.26532 26.0719 7.48778L25 7.91248Z" fill="black"/>
</svg>
