<svg width="185" height="75" viewBox="0 0 185 75" fill="none" xmlns="http://www.w3.org/2000/svg">
<path d="M26.4159 49.0464L18.5657 40.4615V63H183.42V26.1045L175.57 49.6425L167.719 53.8777L159.869 12L152.019 36.9161L144.169 23.071L136.319 16.4954L128.468 44.0895L120.618 38.8171L112.768 30.7822L104.918 52.5517L97.0676 51.0676L89.2174 58.9737L81.3672 24.132L73.517 45.5306L65.6668 18.6798L57.8167 39.461L49.9665 42.5747L42.1163 49.7992L34.2661 51.9153L26.4159 49.0464Z" fill="url(#paint0_linear_251_3164)"/>
<path d="M17.9849 40.5835L25.8903 49.2052L33.7958 52.0864L41.7013 49.9612L49.6068 42.7058L57.5123 39.5787L65.4177 18.7084L73.3232 45.6743L81.2287 24.184L89.1342 59.175L97.0396 51.235L104.945 52.7255L112.851 30.8626L120.756 38.932L128.662 44.227L136.567 16.5146L144.473 23.1184L152.378 37.0229L160.283 12L168.189 54.0572L176.094 49.8038L184 26.165" stroke="#00BDB0" stroke-linejoin="round"/>
<defs>
<linearGradient id="paint0_linear_251_3164" x1="100.993" y1="12" x2="100.993" y2="63" gradientUnits="userSpaceOnUse">
<stop stop-color="#00BDB0" stop-opacity="0.3"/>
<stop offset="1" stop-color="#00BDB0" stop-opacity="0"/>
</linearGradient>
</defs>
</svg>
